<?xml version="1.0" encoding="UTF-8" standalone="no"?>
<!DOCTYPE svg PUBLIC "-//W3C//DTD SVG 1.1//EN"
 "http://www.w3.org/Graphics/SVG/1.1/DTD/svg11.dtd">
<!-- Generated by graphviz version 12.2.1 (20241206.2353)
 -->
<!-- Title: G Pages: 1 -->
<svg width="2765pt" height="1644pt"
 viewBox="0.00 0.00 2764.70 1643.72" xmlns="http://www.w3.org/2000/svg" xmlns:xlink="http://www.w3.org/1999/xlink">
<g id="graph0" class="graph" transform="scale(1 1) rotate(0) translate(21.6 1622.12)">
<title>G</title>
<polygon fill="#111111" stroke="none" points="-21.6,21.6 -21.6,-1622.12 2743.1,-1622.12 2743.1,21.6 -21.6,21.6"/>
<!-- frontend/dist/assets/Activities&#45;f9ybKMQm.js -->
<g id="node1" class="node">
<title>frontend/dist/assets/Activities&#45;f9ybKMQm.js</title>
<path fill="none" stroke="#ff6c60" d="M324.96,-837.39C324.96,-837.39 63.04,-837.39 63.04,-837.39 59.08,-837.39 55.12,-833.44 55.12,-829.48 55.12,-829.48 55.12,-821.56 55.12,-821.56 55.12,-817.6 59.08,-813.64 63.04,-813.64 63.04,-813.64 324.96,-813.64 324.96,-813.64 328.92,-813.64 332.88,-817.6 332.88,-821.56 332.88,-821.56 332.88,-829.48 332.88,-829.48 332.88,-833.44 328.92,-837.39 324.96,-837.39"/>
<text text-anchor="middle" x="194" y="-820.09" font-family="Arial" font-size="14.00" fill="#ff6c60">frontend/dist/assets/Activities&#45;f9ybKMQm.js</text>
</g>
<!-- frontend/dist/assets/ActivityForm&#45;B1nE2aUo.js -->
<g id="node2" class="node">
<title>frontend/dist/assets/ActivityForm&#45;B1nE2aUo.js</title>
<path fill="none" stroke="#ff6c60" d="M1035.33,-628.39C1035.33,-628.39 756.17,-628.39 756.17,-628.39 752.21,-628.39 748.25,-624.44 748.25,-620.48 748.25,-620.48 748.25,-612.56 748.25,-612.56 748.25,-608.6 752.21,-604.64 756.17,-604.64 756.17,-604.64 1035.33,-604.64 1035.33,-604.64 1039.29,-604.64 1043.25,-608.6 1043.25,-612.56 1043.25,-612.56 1043.25,-620.48 1043.25,-620.48 1043.25,-624.44 1039.29,-628.39 1035.33,-628.39"/>
<text text-anchor="middle" x="895.75" y="-611.09" font-family="Arial" font-size="14.00" fill="#ff6c60">frontend/dist/assets/ActivityForm&#45;B1nE2aUo.js</text>
</g>
<!-- frontend/dist/assets/Activities&#45;f9ybKMQm.js&#45;&gt;frontend/dist/assets/ActivityForm&#45;B1nE2aUo.js -->
<g id="edge1" class="edge">
<title>frontend/dist/assets/Activities&#45;f9ybKMQm.js&#45;&gt;frontend/dist/assets/ActivityForm&#45;B1nE2aUo.js</title>
<path fill="none" stroke="#757575" d="M226.95,-813.15C311.08,-780.96 546.2,-693.58 748.25,-642.52 765.57,-638.14 784.22,-634.23 802.22,-630.86"/>
<polygon fill="#757575" stroke="#757575" points="802.63,-634.34 811.84,-629.1 801.37,-627.46 802.63,-634.34"/>
</g>
<!-- frontend/dist/assets/ActivityGrid&#45;DCDtImzV.js -->
<g id="node3" class="node">
<title>frontend/dist/assets/ActivityGrid&#45;DCDtImzV.js</title>
<path fill="none" stroke="#c6c5fe" d="M703.96,-813.39C703.96,-813.39 432.29,-813.39 432.29,-813.39 428.33,-813.39 424.38,-809.44 424.38,-805.48 424.38,-805.48 424.38,-797.56 424.38,-797.56 424.38,-793.6 428.33,-789.64 432.29,-789.64 432.29,-789.64 703.96,-789.64 703.96,-789.64 707.92,-789.64 711.88,-793.6 711.88,-797.56 711.88,-797.56 711.88,-805.48 711.88,-805.48 711.88,-809.44 707.92,-813.39 703.96,-813.39"/>
<text text-anchor="middle" x="568.12" y="-796.09" font-family="Arial" font-size="14.00" fill="#c6c5fe">frontend/dist/assets/ActivityGrid&#45;DCDtImzV.js</text>
</g>
<!-- frontend/dist/assets/Activities&#45;f9ybKMQm.js&#45;&gt;frontend/dist/assets/ActivityGrid&#45;DCDtImzV.js -->
<g id="edge2" class="edge">
<title>frontend/dist/assets/Activities&#45;f9ybKMQm.js&#45;&gt;frontend/dist/assets/ActivityGrid&#45;DCDtImzV.js</title>
<path fill="none" stroke="#757575" d="M333.3,-816.6C359.17,-814.93 386.36,-813.18 412.68,-811.48"/>
<polygon fill="#757575" stroke="#757575" points="412.64,-814.99 422.39,-810.85 412.18,-808.01 412.64,-814.99"/>
</g>
<!-- frontend/dist/assets/ActivityList&#45;uRpEzMaR.js -->
<g id="node4" class="node">
<title>frontend/dist/assets/ActivityList&#45;uRpEzMaR.js</title>
<path fill="none" stroke="#c6c5fe" d="M704.33,-628.39C704.33,-628.39 431.92,-628.39 431.92,-628.39 427.96,-628.39 424,-624.44 424,-620.48 424,-620.48 424,-612.56 424,-612.56 424,-608.6 427.96,-604.64 431.92,-604.64 431.92,-604.64 704.33,-604.64 704.33,-604.64 708.29,-604.64 712.25,-608.6 712.25,-612.56 712.25,-612.56 712.25,-620.48 712.25,-620.48 712.25,-624.44 708.29,-628.39 704.33,-628.39"/>
<text text-anchor="middle" x="568.12" y="-611.09" font-family="Arial" font-size="14.00" fill="#c6c5fe">frontend/dist/assets/ActivityList&#45;uRpEzMaR.js</text>
</g>
<!-- frontend/dist/assets/Activities&#45;f9ybKMQm.js&#45;&gt;frontend/dist/assets/ActivityList&#45;uRpEzMaR.js -->
<g id="edge3" class="edge">
<title>frontend/dist/assets/Activities&#45;f9ybKMQm.js&#45;&gt;frontend/dist/assets/ActivityList&#45;uRpEzMaR.js</title>
<path fill="none" stroke="#757575" d="M216.89,-813.23C279.98,-777.79 462.36,-675.36 535.87,-634.07"/>
<polygon fill="#757575" stroke="#757575" points="537.17,-637.36 544.18,-629.41 533.74,-631.25 537.17,-637.36"/>
</g>
<!-- frontend/dist/assets/ErrorBoundary&#45;B2&#45;lqfZb.js -->
<g id="node5" class="node">
<title>frontend/dist/assets/ErrorBoundary&#45;B2&#45;lqfZb.js</title>
<path fill="none" stroke="#ff6c60" d="M2038.83,-1232.39C2038.83,-1232.39 1761.17,-1232.39 1761.17,-1232.39 1757.21,-1232.39 1753.25,-1228.44 1753.25,-1224.48 1753.25,-1224.48 1753.25,-1216.56 1753.25,-1216.56 1753.25,-1212.6 1757.21,-1208.64 1761.17,-1208.64 1761.17,-1208.64 2038.83,-1208.64 2038.83,-1208.64 2042.79,-1208.64 2046.75,-1212.6 2046.75,-1216.56 2046.75,-1216.56 2046.75,-1224.48 2046.75,-1224.48 2046.75,-1228.44 2042.79,-1232.39 2038.83,-1232.39"/>
<text text-anchor="middle" x="1900" y="-1215.09" font-family="Arial" font-size="14.00" fill="#ff6c60">frontend/dist/assets/ErrorBoundary&#45;B2&#45;lqfZb.js</text>
</g>
<!-- frontend/dist/assets/Activities&#45;f9ybKMQm.js&#45;&gt;frontend/dist/assets/ErrorBoundary&#45;B2&#45;lqfZb.js -->
<g id="edge4" class="edge">
<title>frontend/dist/assets/Activities&#45;f9ybKMQm.js&#45;&gt;frontend/dist/assets/ErrorBoundary&#45;B2&#45;lqfZb.js</title>
<path fill="none" stroke="#757575" d="M333.24,-825.28C352.59,-829.51 371.48,-836.23 388,-846.52 641.75,-1004.55 486.31,-1270.47 748.25,-1414.52 1146.63,-1633.6 1730.81,-1319.53 1868.94,-1238.67"/>
<polygon fill="#757575" stroke="#757575" points="1870.69,-1241.7 1877.52,-1233.61 1867.13,-1235.68 1870.69,-1241.7"/>
</g>
<!-- frontend/dist/assets/index&#45;BBvhcmhs.js -->
<g id="node6" class="node">
<title>frontend/dist/assets/index&#45;BBvhcmhs.js</title>
<path fill="none" stroke="#ff6c60" d="M1323.58,-862.39C1323.58,-862.39 1087.17,-862.39 1087.17,-862.39 1083.21,-862.39 1079.25,-858.44 1079.25,-854.48 1079.25,-854.48 1079.25,-846.56 1079.25,-846.56 1079.25,-842.6 1083.21,-838.64 1087.17,-838.64 1087.17,-838.64 1323.58,-838.64 1323.58,-838.64 1327.54,-838.64 1331.5,-842.6 1331.5,-846.56 1331.5,-846.56 1331.5,-854.48 1331.5,-854.48 1331.5,-858.44 1327.54,-862.39 1323.58,-862.39"/>
<text text-anchor="middle" x="1205.38" y="-845.09" font-family="Arial" font-size="14.00" fill="#ff6c60">frontend/dist/assets/index&#45;BBvhcmhs.js</text>
</g>
<!-- frontend/dist/assets/Activities&#45;f9ybKMQm.js&#45;&gt;frontend/dist/assets/index&#45;BBvhcmhs.js -->
<g id="edge5" class="edge">
<title>frontend/dist/assets/Activities&#45;f9ybKMQm.js&#45;&gt;frontend/dist/assets/index&#45;BBvhcmhs.js</title>
<path fill="none" stroke="#757575" d="M333.23,-824.13C526.46,-826.33 875.17,-834.97 1067.6,-842.34"/>
<polygon fill="#757575" stroke="#757575" points="1067.27,-845.82 1077.4,-842.71 1067.55,-838.83 1067.27,-845.82"/>
</g>
<!-- frontend/dist/assets/models&#45;4IBTDHDg.js -->
<g id="node7" class="node">
<title>frontend/dist/assets/models&#45;4IBTDHDg.js</title>
<path fill="none" stroke="#ff6c60" d="M2387.83,-1190.39C2387.83,-1190.39 2139.42,-1190.39 2139.42,-1190.39 2135.46,-1190.39 2131.5,-1186.44 2131.5,-1182.48 2131.5,-1182.48 2131.5,-1174.56 2131.5,-1174.56 2131.5,-1170.6 2135.46,-1166.64 2139.42,-1166.64 2139.42,-1166.64 2387.83,-1166.64 2387.83,-1166.64 2391.79,-1166.64 2395.75,-1170.6 2395.75,-1174.56 2395.75,-1174.56 2395.75,-1182.48 2395.75,-1182.48 2395.75,-1186.44 2391.79,-1190.39 2387.83,-1190.39"/>
<text text-anchor="middle" x="2263.62" y="-1173.09" font-family="Arial" font-size="14.00" fill="#ff6c60">frontend/dist/assets/models&#45;4IBTDHDg.js</text>
</g>
<!-- frontend/dist/assets/Activities&#45;f9ybKMQm.js&#45;&gt;frontend/dist/assets/models&#45;4IBTDHDg.js -->
<g id="edge6" class="edge">
<title>frontend/dist/assets/Activities&#45;f9ybKMQm.js&#45;&gt;frontend/dist/assets/models&#45;4IBTDHDg.js</title>
<path fill="none" stroke="#757575" d="M332.94,-817.88C353.54,-822.74 372.9,-831.59 388,-846.52 435.59,-893.57 394.58,-1085.41 424,-1145.52 513.14,-1327.66 563.49,-1382.93 748.25,-1466.52 1013,-1586.3 1841.75,-1645.1 2055.75,-1448.52 2139.39,-1371.68 2009.76,-1274.12 2091.75,-1195.52 2100.14,-1187.47 2109.94,-1181.48 2120.53,-1177.11"/>
<polygon fill="#757575" stroke="#757575" points="2121.68,-1180.42 2129.93,-1173.77 2119.33,-1173.82 2121.68,-1180.42"/>
</g>
<!-- frontend/dist/assets/useActivities&#45;D001&#45;WX4.js -->
<g id="node8" class="node">
<title>frontend/dist/assets/useActivities&#45;D001&#45;WX4.js</title>
<path fill="none" stroke="#ff6c60" d="M2040.33,-359.39C2040.33,-359.39 1759.67,-359.39 1759.67,-359.39 1755.71,-359.39 1751.75,-355.44 1751.75,-351.48 1751.75,-351.48 1751.75,-343.56 1751.75,-343.56 1751.75,-339.6 1755.71,-335.64 1759.67,-335.64 1759.67,-335.64 2040.33,-335.64 2040.33,-335.64 2044.29,-335.64 2048.25,-339.6 2048.25,-343.56 2048.25,-343.56 2048.25,-351.48 2048.25,-351.48 2048.25,-355.44 2044.29,-359.39 2040.33,-359.39"/>
<text text-anchor="middle" x="1900" y="-342.09" font-family="Arial" font-size="14.00" fill="#ff6c60">frontend/dist/assets/useActivities&#45;D001&#45;WX4.js</text>
</g>
<!-- frontend/dist/assets/Activities&#45;f9ybKMQm.js&#45;&gt;frontend/dist/assets/useActivities&#45;D001&#45;WX4.js -->
<g id="edge7" class="edge">
<title>frontend/dist/assets/Activities&#45;f9ybKMQm.js&#45;&gt;frontend/dist/assets/useActivities&#45;D001&#45;WX4.js</title>
<path fill="none" stroke="#757575" d="M201.66,-813.34C241.39,-742.13 455.42,-378.4 748.25,-252.52 1140.24,-84.01 1292.83,-161.16 1708.25,-258.52 1769.23,-272.81 1834.05,-307.86 1870.24,-329.46"/>
<polygon fill="#757575" stroke="#757575" points="1868.01,-332.2 1878.37,-334.39 1871.63,-326.21 1868.01,-332.2"/>
</g>
<!-- frontend/dist/assets/useToast&#45;BHMwPaa0.js -->
<g id="node9" class="node">
<title>frontend/dist/assets/useToast&#45;BHMwPaa0.js</title>
<path fill="none" stroke="#ff6c60" d="M2396.08,-448.39C2396.08,-448.39 2131.17,-448.39 2131.17,-448.39 2127.21,-448.39 2123.25,-444.44 2123.25,-440.48 2123.25,-440.48 2123.25,-432.56 2123.25,-432.56 2123.25,-428.6 2127.21,-424.64 2131.17,-424.64 2131.17,-424.64 2396.08,-424.64 2396.08,-424.64 2400.04,-424.64 2404,-428.6 2404,-432.56 2404,-432.56 2404,-440.48 2404,-440.48 2404,-444.44 2400.04,-448.39 2396.08,-448.39"/>
<text text-anchor="middle" x="2263.62" y="-431.09" font-family="Arial" font-size="14.00" fill="#ff6c60">frontend/dist/assets/useToast&#45;BHMwPaa0.js</text>
</g>
<!-- frontend/dist/assets/Activities&#45;f9ybKMQm.js&#45;&gt;frontend/dist/assets/useToast&#45;BHMwPaa0.js -->
<g id="edge8" class="edge">
<title>frontend/dist/assets/Activities&#45;f9ybKMQm.js&#45;&gt;frontend/dist/assets/useToast&#45;BHMwPaa0.js</title>
<path fill="none" stroke="#757575" d="M196.75,-813.23C206.57,-748.36 260.4,-442.4 424,-269.52 583.39,-101.09 662.86,-44.52 894.75,-44.52 894.75,-44.52 894.75,-44.52 1206.38,-44.52 1584.88,-44.52 1731.46,88.68 2055.75,-106.52 2176.05,-178.93 2237.3,-351 2256.15,-413.41"/>
<polygon fill="#757575" stroke="#757575" points="2252.76,-414.3 2258.93,-422.91 2259.48,-412.33 2252.76,-414.3"/>
</g>
<!-- frontend/dist/assets/utils&#45;km2FGkQ4.js -->
<g id="node10" class="node">
<title>frontend/dist/assets/utils&#45;km2FGkQ4.js</title>
<path fill="none" stroke="#cfffac" d="M2713.58,-880.39C2713.58,-880.39 2479.42,-880.39 2479.42,-880.39 2475.46,-880.39 2471.5,-876.44 2471.5,-872.48 2471.5,-872.48 2471.5,-864.56 2471.5,-864.56 2471.5,-860.6 2475.46,-856.64 2479.42,-856.64 2479.42,-856.64 2713.58,-856.64 2713.58,-856.64 2717.54,-856.64 2721.5,-860.6 2721.5,-864.56 2721.5,-864.56 2721.5,-872.48 2721.5,-872.48 2721.5,-876.44 2717.54,-880.39 2713.58,-880.39"/>
<text text-anchor="middle" x="2596.5" y="-863.09" font-family="Arial" font-size="14.00" fill="#cfffac">frontend/dist/assets/utils&#45;km2FGkQ4.js</text>
</g>
<!-- frontend/dist/assets/Activities&#45;f9ybKMQm.js&#45;&gt;frontend/dist/assets/utils&#45;km2FGkQ4.js -->
<g id="edge9" class="edge">
<title>frontend/dist/assets/Activities&#45;f9ybKMQm.js&#45;&gt;frontend/dist/assets/utils&#45;km2FGkQ4.js</title>
<path fill="none" stroke="#757575" d="M263.77,-813.15C305.54,-809.89 356.68,-814.21 388,-846.52 460.14,-920.94 370.72,-1222.62 424,-1311.52 550.21,-1522.1 649.25,-1600.52 894.75,-1600.52 894.75,-1600.52 894.75,-1600.52 1901,-1600.52 2166.94,-1600.52 2260.41,-1531.7 2435.5,-1331.52 2554.85,-1195.06 2586.38,-964.83 2593.59,-891.61"/>
<polygon fill="#757575" stroke="#757575" points="2597.04,-892.31 2594.47,-882.03 2590.06,-891.67 2597.04,-892.31"/>
</g>
<!-- frontend/dist/assets/ActivityForm&#45;B1nE2aUo.js&#45;&gt;frontend/dist/assets/index&#45;BBvhcmhs.js -->
<g id="edge29" class="edge">
<title>frontend/dist/assets/ActivityForm&#45;B1nE2aUo.js&#45;&gt;frontend/dist/assets/index&#45;BBvhcmhs.js</title>
<path fill="none" stroke="#757575" d="M926.66,-628.83C958.09,-642.75 1007.78,-667.7 1043.25,-699.52 1063.63,-717.8 1060.43,-729.63 1079.25,-749.52 1109.67,-781.66 1150.4,-812.73 1177,-831.72"/>
<polygon fill="#757575" stroke="#757575" points="1174.69,-834.38 1184.88,-837.28 1178.73,-828.66 1174.69,-834.38"/>
</g>
<!-- frontend/dist/assets/ActivityForm&#45;B1nE2aUo.js&#45;&gt;frontend/dist/assets/models&#45;4IBTDHDg.js -->
<g id="edge31" class="edge">
<title>frontend/dist/assets/ActivityForm&#45;B1nE2aUo.js&#45;&gt;frontend/dist/assets/models&#45;4IBTDHDg.js</title>
<path fill="none" stroke="#757575" d="M917.66,-628.78C949.6,-648.59 1010.31,-690.71 1043.25,-742.52 1075.19,-792.75 1053.58,-817.82 1079.25,-871.52 1174.38,-1070.52 1173.87,-1169.89 1367.5,-1275.52 1501.81,-1348.79 1907.65,-1331.92 2055.75,-1293.52 2127.68,-1274.87 2201.22,-1225.18 2238.2,-1197.61"/>
<polygon fill="#757575" stroke="#757575" points="2240.15,-1200.53 2246,-1191.71 2235.92,-1194.95 2240.15,-1200.53"/>
</g>
<!-- frontend/dist/assets/ActivityForm&#45;B1nE2aUo.js&#45;&gt;frontend/dist/assets/useActivities&#45;D001&#45;WX4.js -->
<g id="edge32" class="edge">
<title>frontend/dist/assets/ActivityForm&#45;B1nE2aUo.js&#45;&gt;frontend/dist/assets/useActivities&#45;D001&#45;WX4.js</title>
<path fill="none" stroke="#757575" d="M912.33,-604.33C942.64,-581.26 1012.45,-531.22 1079.25,-505.52 1185.76,-464.54 1242.99,-529.57 1331.5,-457.52 1363.95,-431.1 1333.22,-394.52 1367.5,-370.52 1425.68,-329.78 1605.8,-329.69 1740.33,-336.11"/>
<polygon fill="#757575" stroke="#757575" points="1739.89,-339.59 1750.05,-336.59 1740.24,-332.6 1739.89,-339.59"/>
</g>
<!-- frontend/dist/assets/ActivityForm&#45;B1nE2aUo.js&#45;&gt;frontend/dist/assets/useToast&#45;BHMwPaa0.js -->
<g id="edge34" class="edge">
<title>frontend/dist/assets/ActivityForm&#45;B1nE2aUo.js&#45;&gt;frontend/dist/assets/useToast&#45;BHMwPaa0.js</title>
<path fill="none" stroke="#757575" d="M907.64,-604.43C934.41,-575.26 1006.6,-499.99 1079.25,-453.52 1196.88,-378.27 1230.85,-357.25 1367.5,-328.52 1666.84,-265.58 1758.95,-252.52 2055.75,-326.52 2126.58,-344.18 2199.77,-391.14 2237.2,-417.64"/>
<polygon fill="#757575" stroke="#757575" points="2234.96,-420.34 2245.12,-423.33 2239.05,-414.65 2234.96,-420.34"/>
</g>
<!-- frontend/dist/assets/index&#45;DvjDuSg2.js -->
<g id="node13" class="node">
<title>frontend/dist/assets/index&#45;DvjDuSg2.js</title>
<path fill="none" stroke="#ff6c60" d="M2015.96,-688.39C2015.96,-688.39 1784.04,-688.39 1784.04,-688.39 1780.08,-688.39 1776.12,-684.44 1776.12,-680.48 1776.12,-680.48 1776.12,-672.56 1776.12,-672.56 1776.12,-668.6 1780.08,-664.64 1784.04,-664.64 1784.04,-664.64 2015.96,-664.64 2015.96,-664.64 2019.92,-664.64 2023.88,-668.6 2023.88,-672.56 2023.88,-672.56 2023.88,-680.48 2023.88,-680.48 2023.88,-684.44 2019.92,-688.39 2015.96,-688.39"/>
<text text-anchor="middle" x="1900" y="-671.09" font-family="Arial" font-size="14.00" fill="#ff6c60">frontend/dist/assets/index&#45;DvjDuSg2.js</text>
</g>
<!-- frontend/dist/assets/ActivityForm&#45;B1nE2aUo.js&#45;&gt;frontend/dist/assets/index&#45;DvjDuSg2.js -->
<g id="edge30" class="edge">
<title>frontend/dist/assets/ActivityForm&#45;B1nE2aUo.js&#45;&gt;frontend/dist/assets/index&#45;DvjDuSg2.js</title>
<path fill="none" stroke="#757575" d="M1043.41,-614.87C1206.27,-614.51 1476.76,-618.31 1708.25,-642.52 1714.07,-643.13 1769.98,-653.13 1819.77,-662.13"/>
<polygon fill="#757575" stroke="#757575" points="1818.98,-665.54 1829.45,-663.88 1820.23,-658.66 1818.98,-665.54"/>
</g>
<!-- frontend/dist/assets/useActivityPresence&#45;CA22gLSU.js -->
<g id="node14" class="node">
<title>frontend/dist/assets/useActivityPresence&#45;CA22gLSU.js</title>
<path fill="none" stroke="#ff6c60" d="M2427.58,-957.39C2427.58,-957.39 2099.67,-957.39 2099.67,-957.39 2095.71,-957.39 2091.75,-953.44 2091.75,-949.48 2091.75,-949.48 2091.75,-941.56 2091.75,-941.56 2091.75,-937.6 2095.71,-933.64 2099.67,-933.64 2099.67,-933.64 2427.58,-933.64 2427.58,-933.64 2431.54,-933.64 2435.5,-937.6 2435.5,-941.56 2435.5,-941.56 2435.5,-949.48 2435.5,-949.48 2435.5,-953.44 2431.54,-957.39 2427.58,-957.39"/>
<text text-anchor="middle" x="2263.62" y="-940.09" font-family="Arial" font-size="14.00" fill="#ff6c60">frontend/dist/assets/useActivityPresence&#45;CA22gLSU.js</text>
</g>
<!-- frontend/dist/assets/ActivityForm&#45;B1nE2aUo.js&#45;&gt;frontend/dist/assets/useActivityPresence&#45;CA22gLSU.js -->
<g id="edge33" class="edge">
<title>frontend/dist/assets/ActivityForm&#45;B1nE2aUo.js&#45;&gt;frontend/dist/assets/useActivityPresence&#45;CA22gLSU.js</title>
<path fill="none" stroke="#757575" d="M929.89,-604.19C1077.02,-551.76 1680.31,-360.94 2055.75,-608.52 2174.76,-687 2236.82,-859.9 2256.01,-922.4"/>
<polygon fill="#757575" stroke="#757575" points="2252.64,-923.34 2258.85,-931.92 2259.35,-921.34 2252.64,-923.34"/>
</g>
<!-- frontend/dist/assets/ActivityGrid&#45;DCDtImzV.js&#45;&gt;frontend/dist/assets/ActivityForm&#45;B1nE2aUo.js -->
<g id="edge45" class="edge">
<title>frontend/dist/assets/ActivityGrid&#45;DCDtImzV.js&#45;&gt;frontend/dist/assets/ActivityForm&#45;B1nE2aUo.js</title>
<path fill="none" stroke="#757575" d="M620.67,-789.2C650.88,-779.61 687.78,-763.46 712.25,-737.52 743.23,-704.68 713.49,-671.33 748.25,-642.52 752,-639.41 755.99,-636.62 760.16,-634.12"/>
<polygon fill="#757575" stroke="#757575" points="761.69,-637.27 768.88,-629.5 758.41,-631.09 761.69,-637.27"/>
</g>
<!-- frontend/dist/assets/ActivityGrid&#45;DCDtImzV.js&#45;&gt;frontend/dist/assets/index&#45;BBvhcmhs.js -->
<g id="edge46" class="edge">
<title>frontend/dist/assets/ActivityGrid&#45;DCDtImzV.js&#45;&gt;frontend/dist/assets/index&#45;BBvhcmhs.js</title>
<path fill="none" stroke="#757575" d="M712.27,-806.12C806.47,-809.95 932.39,-816.59 1043.25,-827.52 1067.04,-829.87 1092.7,-833.17 1116.4,-836.55"/>
<polygon fill="#757575" stroke="#757575" points="1115.6,-839.97 1126,-837.94 1116.61,-833.04 1115.6,-839.97"/>
</g>
<!-- frontend/dist/assets/ActivityGrid&#45;DCDtImzV.js&#45;&gt;frontend/dist/assets/models&#45;4IBTDHDg.js -->
<g id="edge49" class="edge">
<title>frontend/dist/assets/ActivityGrid&#45;DCDtImzV.js&#45;&gt;frontend/dist/assets/models&#45;4IBTDHDg.js</title>
<path fill="none" stroke="#757575" d="M570.74,-813.84C581.5,-893.66 645.4,-1336.61 748.25,-1414.52 806.15,-1458.38 1989.9,-1455.18 2055.75,-1424.52 2157.57,-1377.11 2227.16,-1252.18 2252.27,-1200.94"/>
<polygon fill="#757575" stroke="#757575" points="2255.38,-1202.54 2256.54,-1192.01 2249.07,-1199.52 2255.38,-1202.54"/>
</g>
<!-- frontend/dist/assets/ActivityGrid&#45;DCDtImzV.js&#45;&gt;frontend/dist/assets/useActivities&#45;D001&#45;WX4.js -->
<g id="edge50" class="edge">
<title>frontend/dist/assets/ActivityGrid&#45;DCDtImzV.js&#45;&gt;frontend/dist/assets/useActivities&#45;D001&#45;WX4.js</title>
<path fill="none" stroke="#757575" d="M579.94,-789.21C603.86,-761.95 663.06,-694.4 712.25,-637.52 728.33,-618.92 728.45,-610.1 748.25,-595.52 868.93,-506.67 1220.74,-358.81 1367.5,-328.52 1526.29,-295.75 1717.32,-316.87 1821.65,-333.38"/>
<polygon fill="#757575" stroke="#757575" points="1820.77,-336.78 1831.2,-334.92 1821.89,-329.87 1820.77,-336.78"/>
</g>
<!-- frontend/dist/assets/ActivityGrid&#45;DCDtImzV.js&#45;&gt;frontend/dist/assets/useToast&#45;BHMwPaa0.js -->
<g id="edge52" class="edge">
<title>frontend/dist/assets/ActivityGrid&#45;DCDtImzV.js&#45;&gt;frontend/dist/assets/useToast&#45;BHMwPaa0.js</title>
<path fill="none" stroke="#757575" d="M584.19,-789.33C613.97,-764.32 680.28,-703.92 712.25,-637.52 751.05,-556.93 689.34,-506.82 748.25,-439.52 850.08,-323.18 929.8,-372.11 1079.25,-332.52 1499.57,-221.18 1645.12,-129.5 2055.75,-272.52 2138.34,-301.29 2212.75,-378.29 2245.29,-415.64"/>
<polygon fill="#757575" stroke="#757575" points="2242.49,-417.75 2251.65,-423.07 2247.81,-413.2 2242.49,-417.75"/>
</g>
<!-- frontend/dist/assets/ActivityGrid&#45;DCDtImzV.js&#45;&gt;frontend/dist/assets/utils&#45;km2FGkQ4.js -->
<g id="edge53" class="edge">
<title>frontend/dist/assets/ActivityGrid&#45;DCDtImzV.js&#45;&gt;frontend/dist/assets/utils&#45;km2FGkQ4.js</title>
<path fill="none" stroke="#757575" d="M626.61,-813.88C657.29,-823.63 692.67,-840.59 712.25,-869.52 783.64,-974.99 657.81,-1351.85 748.25,-1441.52 852.87,-1545.25 931.98,-1455.26 1079.25,-1459.52 1513.1,-1472.06 1642.07,-1579.87 2055.75,-1448.52 2248.11,-1387.44 2302.37,-1351.21 2435.5,-1199.52 2521.58,-1101.44 2572.22,-948.89 2589.12,-891.44"/>
<polygon fill="#757575" stroke="#757575" points="2592.4,-892.71 2591.8,-882.14 2585.67,-890.78 2592.4,-892.71"/>
</g>
<!-- frontend/dist/assets/ActivityDetail&#45;D0FgWwRG.js -->
<g id="node12" class="node">
<title>frontend/dist/assets/ActivityDetail&#45;D0FgWwRG.js</title>
<path fill="none" stroke="#ff6c60" d="M2046.71,-1190.39C2046.71,-1190.39 1753.29,-1190.39 1753.29,-1190.39 1749.33,-1190.39 1745.38,-1186.44 1745.38,-1182.48 1745.38,-1182.48 1745.38,-1174.56 1745.38,-1174.56 1745.38,-1170.6 1749.33,-1166.64 1753.29,-1166.64 1753.29,-1166.64 2046.71,-1166.64 2046.71,-1166.64 2050.67,-1166.64 2054.62,-1170.6 2054.62,-1174.56 2054.62,-1174.56 2054.62,-1182.48 2054.62,-1182.48 2054.62,-1186.44 2050.67,-1190.39 2046.71,-1190.39"/>
<text text-anchor="middle" x="1900" y="-1173.09" font-family="Arial" font-size="14.00" fill="#ff6c60">frontend/dist/assets/ActivityDetail&#45;D0FgWwRG.js</text>
</g>
<!-- frontend/dist/assets/ActivityGrid&#45;DCDtImzV.js&#45;&gt;frontend/dist/assets/ActivityDetail&#45;D0FgWwRG.js -->
<g id="edge44" class="edge">
<title>frontend/dist/assets/ActivityGrid&#45;DCDtImzV.js&#45;&gt;frontend/dist/assets/ActivityDetail&#45;D0FgWwRG.js</title>
<path fill="none" stroke="#757575" d="M569.63,-813.76C572.82,-873.11 595.4,-1132.34 748.25,-1234.52 1102.96,-1471.64 1312.92,-1395.02 1708.25,-1234.52 1728.93,-1226.13 1724.19,-1209.29 1744.25,-1199.52 1747.83,-1197.78 1751.51,-1196.16 1755.27,-1194.67"/>
<polygon fill="#757575" stroke="#757575" points="1756.4,-1197.99 1764.61,-1191.3 1754.02,-1191.4 1756.4,-1197.99"/>
</g>
<!-- frontend/dist/assets/ActivityGrid&#45;DCDtImzV.js&#45;&gt;frontend/dist/assets/index&#45;DvjDuSg2.js -->
<g id="edge48" class="edge">
<title>frontend/dist/assets/ActivityGrid&#45;DCDtImzV.js&#45;&gt;frontend/dist/assets/index&#45;DvjDuSg2.js</title>
<path fill="none" stroke="#757575" d="M599.97,-789.18C635.24,-775.59 694.99,-754.13 748.25,-742.52 1109.13,-663.87 1547.82,-664.32 1764.52,-670.7"/>
<polygon fill="#757575" stroke="#757575" points="1764.32,-674.19 1774.42,-671 1764.54,-667.2 1764.32,-674.19"/>
</g>
<!-- frontend/dist/assets/ActivityGrid&#45;DCDtImzV.js&#45;&gt;frontend/dist/assets/useActivityPresence&#45;CA22gLSU.js -->
<g id="edge51" class="edge">
<title>frontend/dist/assets/ActivityGrid&#45;DCDtImzV.js&#45;&gt;frontend/dist/assets/useActivityPresence&#45;CA22gLSU.js</title>
<path fill="none" stroke="#757575" d="M570.87,-813.55C582.28,-890.51 648.98,-1313.09 748.25,-1386.52 865.77,-1473.44 1942.05,-1333.38 2055.75,-1241.52 2087.34,-1215.99 2070.81,-1192.32 2091.75,-1157.52 2137.81,-1080.97 2208.99,-1001.91 2243.1,-965.76"/>
<polygon fill="#757575" stroke="#757575" points="2245.53,-968.28 2249.89,-958.62 2240.46,-963.45 2245.53,-968.28"/>
</g>
<!-- frontend/dist/assets/index&#45;CpASYFO2.js -->
<g id="node18" class="node">
<title>frontend/dist/assets/index&#45;CpASYFO2.js</title>
<path fill="none" stroke="#c6c5fe" d="M1016.96,-775.39C1016.96,-775.39 774.54,-775.39 774.54,-775.39 770.58,-775.39 766.62,-771.44 766.62,-767.48 766.62,-767.48 766.62,-759.56 766.62,-759.56 766.62,-755.6 770.58,-751.64 774.54,-751.64 774.54,-751.64 1016.96,-751.64 1016.96,-751.64 1020.92,-751.64 1024.88,-755.6 1024.88,-759.56 1024.88,-759.56 1024.88,-767.48 1024.88,-767.48 1024.88,-771.44 1020.92,-775.39 1016.96,-775.39"/>
<text text-anchor="middle" x="895.75" y="-758.09" font-family="Arial" font-size="14.00" fill="#c6c5fe">frontend/dist/assets/index&#45;CpASYFO2.js</text>
</g>
<!-- frontend/dist/assets/ActivityGrid&#45;DCDtImzV.js&#45;&gt;frontend/dist/assets/index&#45;CpASYFO2.js -->
<g id="edge47" class="edge">
<title>frontend/dist/assets/ActivityGrid&#45;DCDtImzV.js&#45;&gt;frontend/dist/assets/index&#45;CpASYFO2.js</title>
<path fill="none" stroke="#757575" d="M674.85,-789.18C707.63,-785.36 743.95,-781.12 777.47,-777.21"/>
<polygon fill="#757575" stroke="#757575" points="777.69,-780.7 787.22,-776.07 776.88,-773.75 777.69,-780.7"/>
</g>
<!-- frontend/dist/assets/ActivityList&#45;uRpEzMaR.js&#45;&gt;frontend/dist/assets/ActivityForm&#45;B1nE2aUo.js -->
<g id="edge55" class="edge">
<title>frontend/dist/assets/ActivityList&#45;uRpEzMaR.js&#45;&gt;frontend/dist/assets/ActivityForm&#45;B1nE2aUo.js</title>
<path fill="none" stroke="#757575" d="M712.42,-616.52C720.42,-616.52 728.49,-616.52 736.54,-616.52"/>
<polygon fill="#757575" stroke="#757575" points="736.39,-620.02 746.39,-616.52 736.39,-613.02 736.39,-620.02"/>
</g>
<!-- frontend/dist/assets/ActivityList&#45;uRpEzMaR.js&#45;&gt;frontend/dist/assets/index&#45;BBvhcmhs.js -->
<g id="edge56" class="edge">
<title>frontend/dist/assets/ActivityList&#45;uRpEzMaR.js&#45;&gt;frontend/dist/assets/index&#45;BBvhcmhs.js</title>
<path fill="none" stroke="#757575" d="M646.08,-628.87C742.13,-646.1 909.99,-682.19 1043.25,-742.52 1096.12,-766.46 1150.83,-807.11 1180.94,-831.13"/>
<polygon fill="#757575" stroke="#757575" points="1178.66,-833.79 1188.64,-837.35 1183.06,-828.34 1178.66,-833.79"/>
</g>
<!-- frontend/dist/assets/ActivityList&#45;uRpEzMaR.js&#45;&gt;frontend/dist/assets/models&#45;4IBTDHDg.js -->
<g id="edge59" class="edge">
<title>frontend/dist/assets/ActivityList&#45;uRpEzMaR.js&#45;&gt;frontend/dist/assets/models&#45;4IBTDHDg.js</title>
<path fill="none" stroke="#757575" d="M583.24,-628.58C611.9,-653.81 677.14,-715.3 712.25,-780.52 740.67,-833.31 712.86,-862.13 748.25,-910.52 942.23,-1175.77 1053.66,-1217.1 1367.5,-1314.52 1659.66,-1405.21 1764.02,-1415.58 2055.75,-1323.52 2134.41,-1298.7 2209.14,-1232.09 2243.27,-1198.49"/>
<polygon fill="#757575" stroke="#757575" points="2245.39,-1201.32 2249.98,-1191.78 2240.43,-1196.38 2245.39,-1201.32"/>
</g>
<!-- frontend/dist/assets/ActivityList&#45;uRpEzMaR.js&#45;&gt;frontend/dist/assets/useActivities&#45;D001&#45;WX4.js -->
<g id="edge60" class="edge">
<title>frontend/dist/assets/ActivityList&#45;uRpEzMaR.js&#45;&gt;frontend/dist/assets/useActivities&#45;D001&#45;WX4.js</title>
<path fill="none" stroke="#757575" d="M571.92,-604.36C583.54,-556.91 632.98,-383.42 748.25,-315.52 932.1,-207.22 1496.69,-268.73 1708.25,-296.52 1758.83,-303.16 1815.06,-319.32 1853.28,-331.68"/>
<polygon fill="#757575" stroke="#757575" points="1852.02,-334.95 1862.61,-334.74 1854.2,-328.3 1852.02,-334.95"/>
</g>
<!-- frontend/dist/assets/ActivityList&#45;uRpEzMaR.js&#45;&gt;frontend/dist/assets/useToast&#45;BHMwPaa0.js -->
<g id="edge62" class="edge">
<title>frontend/dist/assets/ActivityList&#45;uRpEzMaR.js&#45;&gt;frontend/dist/assets/useToast&#45;BHMwPaa0.js</title>
<path fill="none" stroke="#757575" d="M571.08,-604.28C580.12,-552.08 622.84,-346.49 748.25,-252.52 971.82,-84.99 1089.16,-168.61 1367.5,-144.52 1519.87,-131.33 1919.89,-74.27 2055.75,-144.52 2169.08,-203.12 2233.71,-355.6 2254.84,-413.64"/>
<polygon fill="#757575" stroke="#757575" points="2251.45,-414.54 2258.09,-422.8 2258.05,-412.2 2251.45,-414.54"/>
</g>
<!-- frontend/dist/assets/ActivityList&#45;uRpEzMaR.js&#45;&gt;frontend/dist/assets/utils&#45;km2FGkQ4.js -->
<g id="edge63" class="edge">
<title>frontend/dist/assets/ActivityList&#45;uRpEzMaR.js&#45;&gt;frontend/dist/assets/utils&#45;km2FGkQ4.js</title>
<path fill="none" stroke="#757575" d="M579.51,-604.28C605.76,-572.7 675.33,-485.03 712.25,-400.52 739.35,-338.49 697,-296.75 748.25,-252.52 1188.58,127.48 1494.19,-46.06 2055.75,-197.52 2243.65,-248.2 2310.93,-266 2435.5,-415.52 2548.56,-551.24 2584.06,-772.43 2592.95,-844.79"/>
<polygon fill="#757575" stroke="#757575" points="2589.46,-845.13 2594.1,-854.66 2596.42,-844.33 2589.46,-845.13"/>
</g>
<!-- frontend/dist/assets/ActivityList&#45;uRpEzMaR.js&#45;&gt;frontend/dist/assets/ActivityDetail&#45;D0FgWwRG.js -->
<g id="edge54" class="edge">
<title>frontend/dist/assets/ActivityList&#45;uRpEzMaR.js&#45;&gt;frontend/dist/assets/ActivityDetail&#45;D0FgWwRG.js</title>
<path fill="none" stroke="#757575" d="M580.72,-628.8C647.97,-699.02 997.82,-1050.29 1367.5,-1160.52 1502.84,-1200.87 1666.2,-1199.43 1775.78,-1191.73"/>
<polygon fill="#757575" stroke="#757575" points="1775.98,-1195.23 1785.69,-1191 1775.47,-1188.24 1775.98,-1195.23"/>
</g>
<!-- frontend/dist/assets/ActivityList&#45;uRpEzMaR.js&#45;&gt;frontend/dist/assets/index&#45;DvjDuSg2.js -->
<g id="edge58" class="edge">
<title>frontend/dist/assets/ActivityList&#45;uRpEzMaR.js&#45;&gt;frontend/dist/assets/index&#45;DvjDuSg2.js</title>
<path fill="none" stroke="#757575" d="M613.21,-604.17C767.56,-563.01 1296.56,-439.63 1708.25,-557.52 1776.16,-576.97 1843.39,-628.39 1876.96,-656.86"/>
<polygon fill="#757575" stroke="#757575" points="1874.5,-659.37 1884.36,-663.25 1879.07,-654.07 1874.5,-659.37"/>
</g>
<!-- frontend/dist/assets/ActivityList&#45;uRpEzMaR.js&#45;&gt;frontend/dist/assets/useActivityPresence&#45;CA22gLSU.js -->
<g id="edge61" class="edge">
<title>frontend/dist/assets/ActivityList&#45;uRpEzMaR.js&#45;&gt;frontend/dist/assets/useActivityPresence&#45;CA22gLSU.js</title>
<path fill="none" stroke="#757575" d="M585.83,-604.25C616.28,-582.68 683.67,-538.51 748.25,-520.52 1028.21,-442.54 1811.2,-336.5 2055.75,-493.52 2211.9,-593.78 2251.69,-844.51 2260.42,-922.2"/>
<polygon fill="#757575" stroke="#757575" points="2256.93,-922.42 2261.45,-932 2263.89,-921.69 2256.93,-922.42"/>
</g>
<!-- frontend/dist/assets/ActivityList&#45;uRpEzMaR.js&#45;&gt;frontend/dist/assets/index&#45;CpASYFO2.js -->
<g id="edge57" class="edge">
<title>frontend/dist/assets/ActivityList&#45;uRpEzMaR.js&#45;&gt;frontend/dist/assets/index&#45;CpASYFO2.js</title>
<path fill="none" stroke="#757575" d="M584.97,-628.76C615.11,-651.47 683.49,-700.3 748.25,-727.52 769.11,-736.29 792.58,-743.24 814.52,-748.6"/>
<polygon fill="#757575" stroke="#757575" points="813.48,-751.95 824.01,-750.83 815.08,-745.14 813.48,-751.95"/>
</g>
<!-- frontend/dist/assets/ErrorBoundary&#45;B2&#45;lqfZb.js&#45;&gt;frontend/dist/assets/index&#45;BBvhcmhs.js -->
<g id="edge66" class="edge">
<title>frontend/dist/assets/ErrorBoundary&#45;B2&#45;lqfZb.js&#45;&gt;frontend/dist/assets/index&#45;BBvhcmhs.js</title>
<path fill="none" stroke="#757575" d="M1822.25,-1232.88C1711.49,-1246.4 1505.08,-1255.04 1367.5,-1160.52 1264.82,-1089.98 1223.18,-933.08 1210.74,-873.81"/>
<polygon fill="#757575" stroke="#757575" points="1214.21,-873.31 1208.81,-864.19 1207.34,-874.68 1214.21,-873.31"/>
</g>
<!-- frontend/dist/assets/index&#45;BBvhcmhs.js&#45;&gt;frontend/dist/assets/Activities&#45;f9ybKMQm.js -->
<g id="edge75" class="edge">
<title>frontend/dist/assets/index&#45;BBvhcmhs.js&#45;&gt;frontend/dist/assets/Activities&#45;f9ybKMQm.js</title>
<path fill="none" stroke="#757575" d="M1078.92,-852.05C892.74,-850.14 543.91,-841.61 344.67,-834.19"/>
<polygon fill="#757575" stroke="#757575" points="344.87,-830.7 334.75,-833.82 344.61,-837.69 344.87,-830.7"/>
</g>
<!-- frontend/dist/assets/ActivityCalendarPage&#45;0feC1iVK.js -->
<g id="node11" class="node">
<title>frontend/dist/assets/ActivityCalendarPage&#45;0feC1iVK.js</title>
<path fill="none" stroke="#ff6c60" d="M1700.33,-788.39C1700.33,-788.39 1375.42,-788.39 1375.42,-788.39 1371.46,-788.39 1367.5,-784.44 1367.5,-780.48 1367.5,-780.48 1367.5,-772.56 1367.5,-772.56 1367.5,-768.6 1371.46,-764.64 1375.42,-764.64 1375.42,-764.64 1700.33,-764.64 1700.33,-764.64 1704.29,-764.64 1708.25,-768.6 1708.25,-772.56 1708.25,-772.56 1708.25,-780.48 1708.25,-780.48 1708.25,-784.44 1704.29,-788.39 1700.33,-788.39"/>
<text text-anchor="middle" x="1537.88" y="-771.09" font-family="Arial" font-size="14.00" fill="#ff6c60">frontend/dist/assets/ActivityCalendarPage&#45;0feC1iVK.js</text>
</g>
<!-- frontend/dist/assets/index&#45;BBvhcmhs.js&#45;&gt;frontend/dist/assets/ActivityCalendarPage&#45;0feC1iVK.js -->
<g id="edge76" class="edge">
<title>frontend/dist/assets/index&#45;BBvhcmhs.js&#45;&gt;frontend/dist/assets/ActivityCalendarPage&#45;0feC1iVK.js</title>
<path fill="none" stroke="#757575" d="M1223.47,-838.18C1250.52,-824.34 1305.33,-803.72 1356.09,-791.21"/>
<polygon fill="#757575" stroke="#757575" points="1356.78,-794.64 1365.71,-788.94 1355.18,-787.83 1356.78,-794.64"/>
</g>
<!-- frontend/dist/assets/ActivityDetailPage&#45;CAelMmI3.js -->
<g id="node15" class="node">
<title>frontend/dist/assets/ActivityDetailPage&#45;CAelMmI3.js</title>
<path fill="none" stroke="#ff6c60" d="M1693.96,-1116.39C1693.96,-1116.39 1381.79,-1116.39 1381.79,-1116.39 1377.83,-1116.39 1373.88,-1112.44 1373.88,-1108.48 1373.88,-1108.48 1373.88,-1100.56 1373.88,-1100.56 1373.88,-1096.6 1377.83,-1092.64 1381.79,-1092.64 1381.79,-1092.64 1693.96,-1092.64 1693.96,-1092.64 1697.92,-1092.64 1701.88,-1096.6 1701.88,-1100.56 1701.88,-1100.56 1701.88,-1108.48 1701.88,-1108.48 1701.88,-1112.44 1697.92,-1116.39 1693.96,-1116.39"/>
<text text-anchor="middle" x="1537.88" y="-1099.09" font-family="Arial" font-size="14.00" fill="#ff6c60">frontend/dist/assets/ActivityDetailPage&#45;CAelMmI3.js</text>
</g>
<!-- frontend/dist/assets/index&#45;BBvhcmhs.js&#45;&gt;frontend/dist/assets/ActivityDetailPage&#45;CAelMmI3.js -->
<g id="edge77" class="edge">
<title>frontend/dist/assets/index&#45;BBvhcmhs.js&#45;&gt;frontend/dist/assets/ActivityDetailPage&#45;CAelMmI3.js</title>
<path fill="none" stroke="#757575" d="M1212.7,-862.89C1230,-901.37 1282.58,-1016.99 1367.5,-1069.52 1382.59,-1078.85 1399.83,-1085.25 1417.41,-1089.68"/>
<polygon fill="#757575" stroke="#757575" points="1416.38,-1093.03 1426.91,-1091.86 1417.95,-1086.21 1416.38,-1093.03"/>
</g>
<!-- frontend/dist/assets/ActivityFormPage&#45;CEknmNWA.js -->
<g id="node17" class="node">
<title>frontend/dist/assets/ActivityFormPage&#45;CEknmNWA.js</title>
<path fill="none" stroke="#ff6c60" d="M1698.83,-590.39C1698.83,-590.39 1376.92,-590.39 1376.92,-590.39 1372.96,-590.39 1369,-586.44 1369,-582.48 1369,-582.48 1369,-574.56 1369,-574.56 1369,-570.6 1372.96,-566.64 1376.92,-566.64 1376.92,-566.64 1698.83,-566.64 1698.83,-566.64 1702.79,-566.64 1706.75,-570.6 1706.75,-574.56 1706.75,-574.56 1706.75,-582.48 1706.75,-582.48 1706.75,-586.44 1702.79,-590.39 1698.83,-590.39"/>
<text text-anchor="middle" x="1537.88" y="-573.09" font-family="Arial" font-size="14.00" fill="#ff6c60">frontend/dist/assets/ActivityFormPage&#45;CEknmNWA.js</text>
</g>
<!-- frontend/dist/assets/index&#45;BBvhcmhs.js&#45;&gt;frontend/dist/assets/ActivityFormPage&#45;CEknmNWA.js -->
<g id="edge78" class="edge">
<title>frontend/dist/assets/index&#45;BBvhcmhs.js&#45;&gt;frontend/dist/assets/ActivityFormPage&#45;CEknmNWA.js</title>
<path fill="none" stroke="#757575" d="M1212.77,-838.52C1233.28,-807.44 1299.99,-725.79 1367.5,-671.52 1405.36,-641.08 1453.13,-613.12 1488.28,-595.73"/>
<polygon fill="#757575" stroke="#757575" points="1489.45,-599.05 1496.93,-591.55 1486.4,-592.74 1489.45,-599.05"/>
</g>
<!-- frontend/dist/assets/AuthLayout&#45;CV6w2M6x.js -->
<g id="node19" class="node">
<title>frontend/dist/assets/AuthLayout&#45;CV6w2M6x.js</title>
<path fill="none" stroke="#ff6c60" d="M1676.33,-956.39C1676.33,-956.39 1399.42,-956.39 1399.42,-956.39 1395.46,-956.39 1391.5,-952.44 1391.5,-948.48 1391.5,-948.48 1391.5,-940.56 1391.5,-940.56 1391.5,-936.6 1395.46,-932.64 1399.42,-932.64 1399.42,-932.64 1676.33,-932.64 1676.33,-932.64 1680.29,-932.64 1684.25,-936.6 1684.25,-940.56 1684.25,-940.56 1684.25,-948.48 1684.25,-948.48 1684.25,-952.44 1680.29,-956.39 1676.33,-956.39"/>
<text text-anchor="middle" x="1537.88" y="-939.09" font-family="Arial" font-size="14.00" fill="#ff6c60">frontend/dist/assets/AuthLayout&#45;CV6w2M6x.js</text>
</g>
<!-- frontend/dist/assets/index&#45;BBvhcmhs.js&#45;&gt;frontend/dist/assets/AuthLayout&#45;CV6w2M6x.js -->
<g id="edge79" class="edge">
<title>frontend/dist/assets/index&#45;BBvhcmhs.js&#45;&gt;frontend/dist/assets/AuthLayout&#45;CV6w2M6x.js</title>
<path fill="none" stroke="#757575" d="M1240.74,-862.76C1272.6,-877.74 1321.83,-901.66 1367.5,-914.52 1395.08,-922.28 1425.98,-927.18 1453.77,-930.75"/>
<polygon fill="#757575" stroke="#757575" points="1453.2,-934.2 1463.55,-931.96 1454.06,-927.26 1453.2,-934.2"/>
</g>
<!-- frontend/dist/assets/Dashboard&#45;DKW8FI0Y.js -->
<g id="node20" class="node">
<title>frontend/dist/assets/Dashboard&#45;DKW8FI0Y.js</title>
<path fill="none" stroke="#ff6c60" d="M1673.71,-914.39C1673.71,-914.39 1402.04,-914.39 1402.04,-914.39 1398.08,-914.39 1394.12,-910.44 1394.12,-906.48 1394.12,-906.48 1394.12,-898.56 1394.12,-898.56 1394.12,-894.6 1398.08,-890.64 1402.04,-890.64 1402.04,-890.64 1673.71,-890.64 1673.71,-890.64 1677.67,-890.64 1681.62,-894.6 1681.62,-898.56 1681.62,-898.56 1681.62,-906.48 1681.62,-906.48 1681.62,-910.44 1677.67,-914.39 1673.71,-914.39"/>
<text text-anchor="middle" x="1537.88" y="-897.09" font-family="Arial" font-size="14.00" fill="#ff6c60">frontend/dist/assets/Dashboard&#45;DKW8FI0Y.js</text>
</g>
<!-- frontend/dist/assets/index&#45;BBvhcmhs.js&#45;&gt;frontend/dist/assets/Dashboard&#45;DKW8FI0Y.js -->
<g id="edge80" class="edge">
<title>frontend/dist/assets/index&#45;BBvhcmhs.js&#45;&gt;frontend/dist/assets/Dashboard&#45;DKW8FI0Y.js</title>
<path fill="none" stroke="#757575" d="M1311.07,-862.86C1329.82,-866.21 1349.21,-869.63 1367.5,-872.52 1404.68,-878.39 1446.66,-883.61 1479.53,-888.47"/>
<polygon fill="#757575" stroke="#757575" points="1478.84,-891.91 1489.25,-889.95 1479.89,-884.99 1478.84,-891.91"/>
</g>
<!-- frontend/dist/assets/Layout&#45;D5&#45;VbKBS.js -->
<g id="node21" class="node">
<title>frontend/dist/assets/Layout&#45;D5&#45;VbKBS.js</title>
<path fill="none" stroke="#ff6c60" d="M1660.21,-746.39C1660.21,-746.39 1415.54,-746.39 1415.54,-746.39 1411.58,-746.39 1407.62,-742.44 1407.62,-738.48 1407.62,-738.48 1407.62,-730.56 1407.62,-730.56 1407.62,-726.6 1411.58,-722.64 1415.54,-722.64 1415.54,-722.64 1660.21,-722.64 1660.21,-722.64 1664.17,-722.64 1668.12,-726.6 1668.12,-730.56 1668.12,-730.56 1668.12,-738.48 1668.12,-738.48 1668.12,-742.44 1664.17,-746.39 1660.21,-746.39"/>
<text text-anchor="middle" x="1537.88" y="-729.09" font-family="Arial" font-size="14.00" fill="#ff6c60">frontend/dist/assets/Layout&#45;D5&#45;VbKBS.js</text>
</g>
<!-- frontend/dist/assets/index&#45;BBvhcmhs.js&#45;&gt;frontend/dist/assets/Layout&#45;D5&#45;VbKBS.js -->
<g id="edge81" class="edge">
<title>frontend/dist/assets/index&#45;BBvhcmhs.js&#45;&gt;frontend/dist/assets/Layout&#45;D5&#45;VbKBS.js</title>
<path fill="none" stroke="#757575" d="M1216.21,-838.21C1240.34,-815.05 1305.09,-767.76 1367.5,-746.52 1376.77,-743.36 1386.48,-740.67 1396.34,-738.4"/>
<polygon fill="#757575" stroke="#757575" points="1397.01,-741.83 1406.06,-736.32 1395.55,-734.99 1397.01,-741.83"/>
</g>
<!-- frontend/dist/assets/Login&#45;C0cZS3i4.js -->
<g id="node22" class="node">
<title>frontend/dist/assets/Login&#45;C0cZS3i4.js</title>
<path fill="none" stroke="#ff6c60" d="M1653.46,-872.39C1653.46,-872.39 1422.29,-872.39 1422.29,-872.39 1418.33,-872.39 1414.38,-868.44 1414.38,-864.48 1414.38,-864.48 1414.38,-856.56 1414.38,-856.56 1414.38,-852.6 1418.33,-848.64 1422.29,-848.64 1422.29,-848.64 1653.46,-848.64 1653.46,-848.64 1657.42,-848.64 1661.38,-852.6 1661.38,-856.56 1661.38,-856.56 1661.38,-864.48 1661.38,-864.48 1661.38,-868.44 1657.42,-872.39 1653.46,-872.39"/>
<text text-anchor="middle" x="1537.88" y="-855.09" font-family="Arial" font-size="14.00" fill="#ff6c60">frontend/dist/assets/Login&#45;C0cZS3i4.js</text>
</g>
<!-- frontend/dist/assets/index&#45;BBvhcmhs.js&#45;&gt;frontend/dist/assets/Login&#45;C0cZS3i4.js -->
<g id="edge82" class="edge">
<title>frontend/dist/assets/index&#45;BBvhcmhs.js&#45;&gt;frontend/dist/assets/Login&#45;C0cZS3i4.js</title>
<path fill="none" stroke="#757575" d="M1331.79,-847.74C1354.94,-848.23 1379.2,-848.94 1402.59,-849.81"/>
<polygon fill="#757575" stroke="#757575" points="1402.36,-853.31 1412.49,-850.19 1402.63,-846.31 1402.36,-853.31"/>
</g>
<!-- frontend/dist/assets/NotFound&#45;DPIvAwOZ.js -->
<g id="node23" class="node">
<title>frontend/dist/assets/NotFound&#45;DPIvAwOZ.js</title>
<path fill="none" stroke="#ff6c60" d="M1670.71,-830.39C1670.71,-830.39 1405.04,-830.39 1405.04,-830.39 1401.08,-830.39 1397.12,-826.44 1397.12,-822.48 1397.12,-822.48 1397.12,-814.56 1397.12,-814.56 1397.12,-810.6 1401.08,-806.64 1405.04,-806.64 1405.04,-806.64 1670.71,-806.64 1670.71,-806.64 1674.67,-806.64 1678.62,-810.6 1678.62,-814.56 1678.62,-814.56 1678.62,-822.48 1678.62,-822.48 1678.62,-826.44 1674.67,-830.39 1670.71,-830.39"/>
<text text-anchor="middle" x="1537.88" y="-813.09" font-family="Arial" font-size="14.00" fill="#ff6c60">frontend/dist/assets/NotFound&#45;DPIvAwOZ.js</text>
</g>
<!-- frontend/dist/assets/index&#45;BBvhcmhs.js&#45;&gt;frontend/dist/assets/NotFound&#45;DPIvAwOZ.js -->
<g id="edge83" class="edge">
<title>frontend/dist/assets/index&#45;BBvhcmhs.js&#45;&gt;frontend/dist/assets/NotFound&#45;DPIvAwOZ.js</title>
<path fill="none" stroke="#757575" d="M1276.06,-838.15C1308.04,-834.2 1347.28,-830.03 1385.53,-826.44"/>
<polygon fill="#757575" stroke="#757575" points="1385.68,-829.95 1395.31,-825.54 1385.03,-822.98 1385.68,-829.95"/>
</g>
<!-- frontend/dist/assets/Profile&#45;BrZhfB4Y.js -->
<g id="node24" class="node">
<title>frontend/dist/assets/Profile&#45;BrZhfB4Y.js</title>
<path fill="none" stroke="#ff6c60" d="M1654.96,-1036.39C1654.96,-1036.39 1420.79,-1036.39 1420.79,-1036.39 1416.83,-1036.39 1412.88,-1032.44 1412.88,-1028.48 1412.88,-1028.48 1412.88,-1020.56 1412.88,-1020.56 1412.88,-1016.6 1416.83,-1012.64 1420.79,-1012.64 1420.79,-1012.64 1654.96,-1012.64 1654.96,-1012.64 1658.92,-1012.64 1662.88,-1016.6 1662.88,-1020.56 1662.88,-1020.56 1662.88,-1028.48 1662.88,-1028.48 1662.88,-1032.44 1658.92,-1036.39 1654.96,-1036.39"/>
<text text-anchor="middle" x="1537.88" y="-1019.09" font-family="Arial" font-size="14.00" fill="#ff6c60">frontend/dist/assets/Profile&#45;BrZhfB4Y.js</text>
</g>
<!-- frontend/dist/assets/index&#45;BBvhcmhs.js&#45;&gt;frontend/dist/assets/Profile&#45;BrZhfB4Y.js -->
<g id="edge84" class="edge">
<title>frontend/dist/assets/index&#45;BBvhcmhs.js&#45;&gt;frontend/dist/assets/Profile&#45;BrZhfB4Y.js</title>
<path fill="none" stroke="#757575" d="M1219.22,-862.52C1244,-890.49 1301.76,-957.95 1367.5,-989.52 1388.8,-999.75 1413.19,-1006.13 1436.69,-1010.34"/>
<polygon fill="#757575" stroke="#757575" points="1435.85,-1013.75 1446.29,-1011.94 1437,-1006.84 1435.85,-1013.75"/>
</g>
<!-- frontend/dist/assets/models&#45;4IBTDHDg.js&#45;&gt;frontend/dist/assets/index&#45;BBvhcmhs.js -->
<g id="edge87" class="edge">
<title>frontend/dist/assets/models&#45;4IBTDHDg.js&#45;&gt;frontend/dist/assets/index&#45;BBvhcmhs.js</title>
<path fill="none" stroke="#757575" d="M2234.4,-1190.77C2115.67,-1240.2 1649.95,-1413.11 1367.5,-1214.52 1249.06,-1131.25 1216.57,-940.5 1208.67,-873.94"/>
<polygon fill="#757575" stroke="#757575" points="1212.17,-873.75 1207.6,-864.19 1205.21,-874.51 1212.17,-873.75"/>
</g>
<!-- frontend/dist/assets/models&#45;4IBTDHDg.js&#45;&gt;frontend/dist/assets/utils&#45;km2FGkQ4.js -->
<g id="edge88" class="edge">
<title>frontend/dist/assets/models&#45;4IBTDHDg.js&#45;&gt;frontend/dist/assets/utils&#45;km2FGkQ4.js</title>
<path fill="none" stroke="#757575" d="M2323.91,-1166.22C2359.15,-1156.64 2403.13,-1140.49 2435.5,-1114.52 2514.06,-1051.48 2566.7,-939.1 2586.61,-891.18"/>
<polygon fill="#757575" stroke="#757575" points="2589.77,-892.69 2590.29,-882.1 2583.29,-890.05 2589.77,-892.69"/>
</g>
<!-- frontend/dist/assets/useActivities&#45;D001&#45;WX4.js&#45;&gt;frontend/dist/assets/index&#45;BBvhcmhs.js -->
<g id="edge89" class="edge">
<title>frontend/dist/assets/useActivities&#45;D001&#45;WX4.js&#45;&gt;frontend/dist/assets/index&#45;BBvhcmhs.js</title>
<path fill="none" stroke="#757575" d="M1783.88,-359.85C1666.75,-377.84 1486.03,-421.27 1367.5,-524.52 1269.73,-609.69 1225.13,-768.04 1211.31,-827.32"/>
<polygon fill="#757575" stroke="#757575" points="1207.93,-826.4 1209.16,-836.93 1214.76,-827.94 1207.93,-826.4"/>
</g>
<!-- frontend/dist/assets/useActivities&#45;D001&#45;WX4.js&#45;&gt;frontend/dist/assets/models&#45;4IBTDHDg.js -->
<g id="edge90" class="edge">
<title>frontend/dist/assets/useActivities&#45;D001&#45;WX4.js&#45;&gt;frontend/dist/assets/models&#45;4IBTDHDg.js</title>
<path fill="none" stroke="#757575" d="M1909.17,-359.76C1935.58,-400.03 2019.08,-532.82 2055.75,-655.52 2095.59,-788.84 2037.97,-838.19 2091.75,-966.52 2126,-1048.26 2201.72,-1123.97 2239.81,-1158.65"/>
<polygon fill="#757575" stroke="#757575" points="2237.3,-1161.1 2247.08,-1165.17 2241.97,-1155.89 2237.3,-1161.1"/>
</g>
<!-- frontend/dist/assets/useActivities&#45;D001&#45;WX4.js&#45;&gt;frontend/dist/assets/useToast&#45;BHMwPaa0.js -->
<g id="edge91" class="edge">
<title>frontend/dist/assets/useActivities&#45;D001&#45;WX4.js&#45;&gt;frontend/dist/assets/useToast&#45;BHMwPaa0.js</title>
<path fill="none" stroke="#757575" d="M1986.53,-359.86C2009.16,-363.68 2033.47,-368.28 2055.75,-373.52 2111.66,-386.67 2174.62,-406.6 2216.24,-420.51"/>
<polygon fill="#757575" stroke="#757575" points="2215.1,-423.82 2225.69,-423.69 2217.33,-417.19 2215.1,-423.82"/>
</g>
<!-- frontend/dist/assets/useToast&#45;BHMwPaa0.js&#45;&gt;frontend/dist/assets/index&#45;BBvhcmhs.js -->
<g id="edge93" class="edge">
<title>frontend/dist/assets/useToast&#45;BHMwPaa0.js&#45;&gt;frontend/dist/assets/index&#45;BBvhcmhs.js</title>
<path fill="none" stroke="#757575" d="M2122.76,-440.31C1902.44,-448.75 1487.28,-475.36 1367.5,-557.52 1269.82,-624.51 1225.5,-770.83 1211.52,-827.48"/>
<polygon fill="#757575" stroke="#757575" points="1208.18,-826.42 1209.28,-836.96 1214.99,-828.04 1208.18,-826.42"/>
</g>
<!-- frontend/dist/assets/useToast&#45;BHMwPaa0.js&#45;&gt;frontend/dist/assets/utils&#45;km2FGkQ4.js -->
<g id="edge94" class="edge">
<title>frontend/dist/assets/useToast&#45;BHMwPaa0.js&#45;&gt;frontend/dist/assets/utils&#45;km2FGkQ4.js</title>
<path fill="none" stroke="#757575" d="M2282.64,-448.89C2315.92,-472.37 2387.95,-526.32 2435.5,-584.52 2506.92,-671.93 2564.18,-795.54 2585.99,-845.87"/>
<polygon fill="#757575" stroke="#757575" points="2582.68,-847.04 2589.83,-854.86 2589.11,-844.29 2582.68,-847.04"/>
</g>
<!-- frontend/dist/assets/ActivityCalendarPage&#45;0feC1iVK.js&#45;&gt;frontend/dist/assets/ActivityForm&#45;B1nE2aUo.js -->
<g id="edge11" class="edge">
<title>frontend/dist/assets/ActivityCalendarPage&#45;0feC1iVK.js&#45;&gt;frontend/dist/assets/ActivityForm&#45;B1nE2aUo.js</title>
<path fill="none" stroke="#757575" d="M1417.1,-764.15C1400.37,-761.7 1383.45,-758.84 1367.5,-755.52 1208.58,-722.44 1025.51,-661.62 942.23,-632.67"/>
<polygon fill="#757575" stroke="#757575" points="943.41,-629.37 932.82,-629.38 941.1,-635.98 943.41,-629.37"/>
</g>
<!-- frontend/dist/assets/ActivityCalendarPage&#45;0feC1iVK.js&#45;&gt;frontend/dist/assets/ErrorBoundary&#45;B2&#45;lqfZb.js -->
<g id="edge12" class="edge">
<title>frontend/dist/assets/ActivityCalendarPage&#45;0feC1iVK.js&#45;&gt;frontend/dist/assets/ErrorBoundary&#45;B2&#45;lqfZb.js</title>
<path fill="none" stroke="#757575" d="M1698.36,-788.82C1701.85,-791.43 1705.16,-794.32 1708.25,-797.52 1770.58,-862.01 1682.29,-1134.67 1744.25,-1199.52 1744.73,-1200.03 1745.22,-1200.52 1745.72,-1201.01"/>
<polygon fill="#757575" stroke="#757575" points="1743.18,-1203.45 1753.06,-1207.28 1747.73,-1198.13 1743.18,-1203.45"/>
</g>
<!-- frontend/dist/assets/ActivityCalendarPage&#45;0feC1iVK.js&#45;&gt;frontend/dist/assets/index&#45;BBvhcmhs.js -->
<g id="edge13" class="edge">
<title>frontend/dist/assets/ActivityCalendarPage&#45;0feC1iVK.js&#45;&gt;frontend/dist/assets/index&#45;BBvhcmhs.js</title>
<path fill="none" stroke="#757575" d="M1478.39,-788.87C1445.53,-793.14 1403.93,-798.35 1367.5,-806.52 1334.76,-813.86 1299.24,-825.17 1269.91,-834.66"/>
<polygon fill="#757575" stroke="#757575" points="1268.86,-831.32 1260.43,-837.73 1271.02,-837.98 1268.86,-831.32"/>
</g>
<!-- frontend/dist/assets/ActivityCalendarPage&#45;0feC1iVK.js&#45;&gt;frontend/dist/assets/models&#45;4IBTDHDg.js -->
<g id="edge15" class="edge">
<title>frontend/dist/assets/ActivityCalendarPage&#45;0feC1iVK.js&#45;&gt;frontend/dist/assets/models&#45;4IBTDHDg.js</title>
<path fill="none" stroke="#757575" d="M1696.07,-788.72C1700.34,-791.33 1704.41,-794.26 1708.25,-797.52 1751.64,-834.42 1703.37,-880.86 1744.25,-920.52 1846.92,-1020.12 1928.94,-935.33 2055.75,-1001.52 2135.71,-1043.26 2211.41,-1121.12 2244.78,-1158.06"/>
<polygon fill="#757575" stroke="#757575" points="2242.05,-1160.26 2251.32,-1165.39 2247.27,-1155.6 2242.05,-1160.26"/>
</g>
<!-- frontend/dist/assets/ActivityCalendarPage&#45;0feC1iVK.js&#45;&gt;frontend/dist/assets/useActivities&#45;D001&#45;WX4.js -->
<g id="edge16" class="edge">
<title>frontend/dist/assets/ActivityCalendarPage&#45;0feC1iVK.js&#45;&gt;frontend/dist/assets/useActivities&#45;D001&#45;WX4.js</title>
<path fill="none" stroke="#757575" d="M1695.44,-764.23C1699.91,-761.65 1704.2,-758.76 1708.25,-755.52 1745.15,-726.03 1725.61,-698.92 1744.25,-655.52 1791.33,-545.86 1858.97,-420.15 1886.56,-369.94"/>
<polygon fill="#757575" stroke="#757575" points="1889.61,-371.65 1891.38,-361.2 1883.49,-368.27 1889.61,-371.65"/>
</g>
<!-- frontend/dist/assets/ActivityCalendarPage&#45;0feC1iVK.js&#45;&gt;frontend/dist/assets/useToast&#45;BHMwPaa0.js -->
<g id="edge18" class="edge">
<title>frontend/dist/assets/ActivityCalendarPage&#45;0feC1iVK.js&#45;&gt;frontend/dist/assets/useToast&#45;BHMwPaa0.js</title>
<path fill="none" stroke="#757575" d="M1616.7,-788.84C1723.41,-801.68 1917.62,-810.19 2055.75,-730.52 2166.52,-666.63 2232.49,-516.69 2254.42,-459.36"/>
<polygon fill="#757575" stroke="#757575" points="2257.59,-460.9 2257.8,-450.31 2251.03,-458.45 2257.59,-460.9"/>
</g>
<!-- frontend/dist/assets/ActivityCalendarPage&#45;0feC1iVK.js&#45;&gt;frontend/dist/assets/utils&#45;km2FGkQ4.js -->
<g id="edge19" class="edge">
<title>frontend/dist/assets/ActivityCalendarPage&#45;0feC1iVK.js&#45;&gt;frontend/dist/assets/utils&#45;km2FGkQ4.js</title>
<path fill="none" stroke="#757575" d="M1680.83,-788.88C1885.07,-806.66 2259.28,-839.25 2459.92,-856.71"/>
<polygon fill="#757575" stroke="#757575" points="2459.34,-860.18 2469.6,-857.56 2459.94,-853.2 2459.34,-860.18"/>
</g>
<!-- frontend/dist/assets/ActivityCalendarPage&#45;0feC1iVK.js&#45;&gt;frontend/dist/assets/ActivityDetail&#45;D0FgWwRG.js -->
<g id="edge10" class="edge">
<title>frontend/dist/assets/ActivityCalendarPage&#45;0feC1iVK.js&#45;&gt;frontend/dist/assets/ActivityDetail&#45;D0FgWwRG.js</title>
<path fill="none" stroke="#757575" d="M1697.77,-788.79C1701.46,-791.41 1704.97,-794.31 1708.25,-797.52 1787.24,-874.79 1691.33,-946.52 1744.25,-1043.52 1772.97,-1096.16 1830.74,-1137.9 1867,-1160.35"/>
<polygon fill="#757575" stroke="#757575" points="1864.95,-1163.2 1875.32,-1165.37 1868.57,-1157.21 1864.95,-1163.2"/>
</g>
<!-- frontend/dist/assets/ActivityCalendarPage&#45;0feC1iVK.js&#45;&gt;frontend/dist/assets/index&#45;DvjDuSg2.js -->
<g id="edge14" class="edge">
<title>frontend/dist/assets/ActivityCalendarPage&#45;0feC1iVK.js&#45;&gt;frontend/dist/assets/index&#45;DvjDuSg2.js</title>
<path fill="none" stroke="#757575" d="M1668.11,-764.17C1681.76,-761.78 1695.36,-758.92 1708.25,-755.52 1765.43,-740.43 1828.14,-711.98 1865.5,-693.65"/>
<polygon fill="#757575" stroke="#757575" points="1866.58,-697.02 1873.98,-689.45 1863.47,-690.75 1866.58,-697.02"/>
</g>
<!-- frontend/dist/assets/ActivityCalendarPage&#45;0feC1iVK.js&#45;&gt;frontend/dist/assets/useActivityPresence&#45;CA22gLSU.js -->
<g id="edge17" class="edge">
<title>frontend/dist/assets/ActivityCalendarPage&#45;0feC1iVK.js&#45;&gt;frontend/dist/assets/useActivityPresence&#45;CA22gLSU.js</title>
<path fill="none" stroke="#757575" d="M1694.82,-788.89C1699.5,-791.44 1703.99,-794.31 1708.25,-797.52 1740.99,-822.24 1711.48,-857.84 1744.25,-882.52 1771.2,-902.82 1942.05,-920.81 2080.35,-932.31"/>
<polygon fill="#757575" stroke="#757575" points="2079.75,-935.78 2090.01,-933.11 2080.33,-928.8 2079.75,-935.78"/>
</g>
<!-- frontend/dist/assets/ActivityDetail&#45;D0FgWwRG.js&#45;&gt;frontend/dist/assets/index&#45;BBvhcmhs.js -->
<g id="edge20" class="edge">
<title>frontend/dist/assets/ActivityDetail&#45;D0FgWwRG.js&#45;&gt;frontend/dist/assets/index&#45;BBvhcmhs.js</title>
<path fill="none" stroke="#757575" d="M1745.03,-1170.26C1599.47,-1161.31 1398.8,-1145.59 1367.5,-1125.52 1273.09,-1064.99 1227.18,-927.94 1212.15,-873.47"/>
<polygon fill="#757575" stroke="#757575" points="1215.6,-872.82 1209.65,-864.06 1208.83,-874.62 1215.6,-872.82"/>
</g>
<!-- frontend/dist/assets/ActivityDetail&#45;D0FgWwRG.js&#45;&gt;frontend/dist/assets/models&#45;4IBTDHDg.js -->
<g id="edge21" class="edge">
<title>frontend/dist/assets/ActivityDetail&#45;D0FgWwRG.js&#45;&gt;frontend/dist/assets/models&#45;4IBTDHDg.js</title>
<path fill="none" stroke="#757575" d="M2054.89,-1178.52C2076.4,-1178.52 2098.42,-1178.52 2119.72,-1178.52"/>
<polygon fill="#757575" stroke="#757575" points="2119.61,-1182.02 2129.61,-1178.52 2119.61,-1175.02 2119.61,-1182.02"/>
</g>
<!-- frontend/dist/assets/ActivityDetail&#45;D0FgWwRG.js&#45;&gt;frontend/dist/assets/useActivityPresence&#45;CA22gLSU.js -->
<g id="edge22" class="edge">
<title>frontend/dist/assets/ActivityDetail&#45;D0FgWwRG.js&#45;&gt;frontend/dist/assets/useActivityPresence&#45;CA22gLSU.js</title>
<path fill="none" stroke="#757575" d="M1920.19,-1166.16C1979.89,-1127.69 2162.64,-1009.94 2233.82,-964.08"/>
<polygon fill="#757575" stroke="#757575" points="2235.7,-967.03 2242.21,-958.67 2231.91,-961.15 2235.7,-967.03"/>
</g>
<!-- frontend/dist/assets/index&#45;DvjDuSg2.js&#45;&gt;frontend/dist/assets/index&#45;BBvhcmhs.js -->
<g id="edge86" class="edge">
<title>frontend/dist/assets/index&#45;DvjDuSg2.js&#45;&gt;frontend/dist/assets/index&#45;BBvhcmhs.js</title>
<path fill="none" stroke="#757575" d="M1775.68,-676.27C1642.19,-677.54 1438.81,-684.45 1367.5,-713.52 1305.26,-738.89 1249.64,-798.03 1223,-829.67"/>
<polygon fill="#757575" stroke="#757575" points="1220.31,-827.43 1216.65,-837.37 1225.71,-831.88 1220.31,-827.43"/>
</g>
<!-- frontend/dist/assets/useActivityPresence&#45;CA22gLSU.js&#45;&gt;frontend/dist/assets/index&#45;BBvhcmhs.js -->
<g id="edge92" class="edge">
<title>frontend/dist/assets/useActivityPresence&#45;CA22gLSU.js&#45;&gt;frontend/dist/assets/index&#45;BBvhcmhs.js</title>
<path fill="none" stroke="#757575" d="M2142.03,-957.88C1931.97,-977.81 1507.95,-1010.5 1367.5,-965.52 1309.07,-946.81 1253.77,-898.26 1225.66,-870.6"/>
<polygon fill="#757575" stroke="#757575" points="1228.43,-868.43 1218.9,-863.81 1223.47,-873.37 1228.43,-868.43"/>
</g>
<!-- frontend/dist/assets/ActivityDetailPage&#45;CAelMmI3.js&#45;&gt;frontend/dist/assets/index&#45;BBvhcmhs.js -->
<g id="edge25" class="edge">
<title>frontend/dist/assets/ActivityDetailPage&#45;CAelMmI3.js&#45;&gt;frontend/dist/assets/index&#45;BBvhcmhs.js</title>
<path fill="none" stroke="#757575" d="M1375.66,-1092.18C1372.88,-1090.72 1370.16,-1089.16 1367.5,-1087.52 1283.72,-1035.7 1231.41,-922.45 1213.41,-873.47"/>
<polygon fill="#757575" stroke="#757575" points="1216.76,-872.45 1210.16,-864.17 1210.15,-874.76 1216.76,-872.45"/>
</g>
<!-- frontend/dist/assets/ActivityDetailPage&#45;CAelMmI3.js&#45;&gt;frontend/dist/assets/models&#45;4IBTDHDg.js -->
<g id="edge26" class="edge">
<title>frontend/dist/assets/ActivityDetailPage&#45;CAelMmI3.js&#45;&gt;frontend/dist/assets/models&#45;4IBTDHDg.js</title>
<path fill="none" stroke="#757575" d="M1659.61,-1116.86C1789.77,-1130.17 1996.34,-1151.29 2130.7,-1165.03"/>
<polygon fill="#757575" stroke="#757575" points="2130.04,-1168.48 2140.35,-1166.02 2130.76,-1161.52 2130.04,-1168.48"/>
</g>
<!-- frontend/dist/assets/ActivityDetailPage&#45;CAelMmI3.js&#45;&gt;frontend/dist/assets/utils&#45;km2FGkQ4.js -->
<g id="edge28" class="edge">
<title>frontend/dist/assets/ActivityDetailPage&#45;CAelMmI3.js&#45;&gt;frontend/dist/assets/utils&#45;km2FGkQ4.js</title>
<path fill="none" stroke="#757575" d="M1702.32,-1105.64C1804.54,-1103.97 1938.59,-1097.42 2055.75,-1077.52 2229.11,-1048.07 2274.73,-1037.73 2435.5,-966.52 2485.76,-944.26 2539.27,-908.77 2569.92,-887.16"/>
<polygon fill="#757575" stroke="#757575" points="2571.69,-890.2 2577.8,-881.54 2567.63,-884.49 2571.69,-890.2"/>
</g>
<!-- frontend/dist/assets/ActivityDetailPage&#45;CAelMmI3.js&#45;&gt;frontend/dist/assets/ActivityDetail&#45;D0FgWwRG.js -->
<g id="edge23" class="edge">
<title>frontend/dist/assets/ActivityDetailPage&#45;CAelMmI3.js&#45;&gt;frontend/dist/assets/ActivityDetail&#45;D0FgWwRG.js</title>
<path fill="none" stroke="#757575" d="M1658.83,-1116.86C1675.7,-1120.34 1692.6,-1124.8 1708.25,-1130.52 1725.86,-1136.96 1726.68,-1145.96 1744.25,-1152.52 1756.09,-1156.94 1768.73,-1160.62 1781.48,-1163.67"/>
<polygon fill="#757575" stroke="#757575" points="1780.69,-1167.08 1791.22,-1165.86 1782.23,-1160.25 1780.69,-1167.08"/>
</g>
<!-- frontend/dist/assets/ActivityDetailPage&#45;CAelMmI3.js&#45;&gt;frontend/dist/assets/useActivityPresence&#45;CA22gLSU.js -->
<g id="edge27" class="edge">
<title>frontend/dist/assets/ActivityDetailPage&#45;CAelMmI3.js&#45;&gt;frontend/dist/assets/useActivityPresence&#45;CA22gLSU.js</title>
<path fill="none" stroke="#757575" d="M1661.56,-1092.15C1802.39,-1077.62 2018.79,-1054.15 2055.75,-1043.52 2122.02,-1024.47 2193.48,-986.23 2232.66,-963.56"/>
<polygon fill="#757575" stroke="#757575" points="2234.2,-966.72 2241.06,-958.64 2230.66,-960.67 2234.2,-966.72"/>
</g>
<!-- frontend/dist/assets/activitiesService&#45;Dy2_Ej1w.js -->
<g id="node16" class="node">
<title>frontend/dist/assets/activitiesService&#45;Dy2_Ej1w.js</title>
<path fill="none" stroke="#ff6c60" d="M2047.83,-1034.39C2047.83,-1034.39 1752.17,-1034.39 1752.17,-1034.39 1748.21,-1034.39 1744.25,-1030.44 1744.25,-1026.48 1744.25,-1026.48 1744.25,-1018.56 1744.25,-1018.56 1744.25,-1014.6 1748.21,-1010.64 1752.17,-1010.64 1752.17,-1010.64 2047.83,-1010.64 2047.83,-1010.64 2051.79,-1010.64 2055.75,-1014.6 2055.75,-1018.56 2055.75,-1018.56 2055.75,-1026.48 2055.75,-1026.48 2055.75,-1030.44 2051.79,-1034.39 2047.83,-1034.39"/>
<text text-anchor="middle" x="1900" y="-1017.09" font-family="Arial" font-size="14.00" fill="#ff6c60">frontend/dist/assets/activitiesService&#45;Dy2_Ej1w.js</text>
</g>
<!-- frontend/dist/assets/ActivityDetailPage&#45;CAelMmI3.js&#45;&gt;frontend/dist/assets/activitiesService&#45;Dy2_Ej1w.js -->
<g id="edge24" class="edge">
<title>frontend/dist/assets/ActivityDetailPage&#45;CAelMmI3.js&#45;&gt;frontend/dist/assets/activitiesService&#45;Dy2_Ej1w.js</title>
<path fill="none" stroke="#757575" d="M1668.18,-1092.2C1682.02,-1088.68 1695.64,-1084.21 1708.25,-1078.52 1727.24,-1069.96 1725.32,-1057.21 1744.25,-1048.52 1753.34,-1044.34 1763.01,-1040.83 1772.9,-1037.88"/>
<polygon fill="#757575" stroke="#757575" points="1773.54,-1041.33 1782.24,-1035.29 1771.67,-1034.59 1773.54,-1041.33"/>
</g>
<!-- frontend/dist/assets/activitiesService&#45;Dy2_Ej1w.js&#45;&gt;frontend/dist/assets/index&#45;BBvhcmhs.js -->
<g id="edge74" class="edge">
<title>frontend/dist/assets/activitiesService&#45;Dy2_Ej1w.js&#45;&gt;frontend/dist/assets/index&#45;BBvhcmhs.js</title>
<path fill="none" stroke="#757575" d="M1780.21,-1034.89C1768.05,-1036.36 1755.9,-1037.91 1744.25,-1039.52 1728.18,-1041.74 1724.42,-1044.18 1708.25,-1045.52 1557.32,-1058.01 1504.51,-1110.04 1367.5,-1045.52 1290.55,-1009.28 1237.8,-916.25 1216.69,-873.11"/>
<polygon fill="#757575" stroke="#757575" points="1219.9,-871.71 1212.44,-864.18 1213.58,-874.72 1219.9,-871.71"/>
</g>
<!-- frontend/dist/assets/ActivityFormPage&#45;CEknmNWA.js&#45;&gt;frontend/dist/assets/ActivityForm&#45;B1nE2aUo.js -->
<g id="edge35" class="edge">
<title>frontend/dist/assets/ActivityFormPage&#45;CEknmNWA.js&#45;&gt;frontend/dist/assets/ActivityForm&#45;B1nE2aUo.js</title>
<path fill="none" stroke="#757575" d="M1368.69,-587.72C1282.18,-592.54 1175.06,-598.65 1079.25,-604.52 1071.3,-605.01 1063.15,-605.51 1054.92,-606.03"/>
<polygon fill="#757575" stroke="#757575" points="1054.93,-602.52 1045.18,-606.65 1055.38,-609.51 1054.93,-602.52"/>
</g>
<!-- frontend/dist/assets/ActivityFormPage&#45;CEknmNWA.js&#45;&gt;frontend/dist/assets/index&#45;BBvhcmhs.js -->
<g id="edge37" class="edge">
<title>frontend/dist/assets/ActivityFormPage&#45;CEknmNWA.js&#45;&gt;frontend/dist/assets/index&#45;BBvhcmhs.js</title>
<path fill="none" stroke="#757575" d="M1521.97,-590.72C1491.36,-609.97 1419.94,-647.37 1367.5,-689.52 1311.88,-734.23 1256.8,-797.54 1227.65,-830.03"/>
<polygon fill="#757575" stroke="#757575" points="1225.27,-827.45 1221.16,-837.21 1230.46,-832.14 1225.27,-827.45"/>
</g>
<!-- frontend/dist/assets/ActivityFormPage&#45;CEknmNWA.js&#45;&gt;frontend/dist/assets/models&#45;4IBTDHDg.js -->
<g id="edge39" class="edge">
<title>frontend/dist/assets/ActivityFormPage&#45;CEknmNWA.js&#45;&gt;frontend/dist/assets/models&#45;4IBTDHDg.js</title>
<path fill="none" stroke="#757575" d="M1559.83,-590.81C1645.67,-641.37 1969.92,-834.46 2055.75,-916.52 2075.54,-935.44 2075.15,-944.74 2091.75,-966.52 2146.17,-1037.92 2213.88,-1120.05 2245.22,-1157.7"/>
<polygon fill="#757575" stroke="#757575" points="2242.31,-1159.68 2251.4,-1165.12 2247.69,-1155.2 2242.31,-1159.68"/>
</g>
<!-- frontend/dist/assets/ActivityFormPage&#45;CEknmNWA.js&#45;&gt;frontend/dist/assets/useActivities&#45;D001&#45;WX4.js -->
<g id="edge40" class="edge">
<title>frontend/dist/assets/ActivityFormPage&#45;CEknmNWA.js&#45;&gt;frontend/dist/assets/useActivities&#45;D001&#45;WX4.js</title>
<path fill="none" stroke="#757575" d="M1557.98,-566.26C1617.44,-528.12 1799.43,-411.39 1870.31,-365.92"/>
<polygon fill="#757575" stroke="#757575" points="1872.14,-368.91 1878.66,-360.56 1868.36,-363.02 1872.14,-368.91"/>
</g>
<!-- frontend/dist/assets/ActivityFormPage&#45;CEknmNWA.js&#45;&gt;frontend/dist/assets/useToast&#45;BHMwPaa0.js -->
<g id="edge42" class="edge">
<title>frontend/dist/assets/ActivityFormPage&#45;CEknmNWA.js&#45;&gt;frontend/dist/assets/useToast&#45;BHMwPaa0.js</title>
<path fill="none" stroke="#757575" d="M1707.12,-580.4C1809.52,-577.74 1942.06,-567.46 2055.75,-536.52 2123.06,-518.2 2194.95,-478.25 2233.75,-454.76"/>
<polygon fill="#757575" stroke="#757575" points="2235.34,-457.89 2242.04,-449.68 2231.68,-451.92 2235.34,-457.89"/>
</g>
<!-- frontend/dist/assets/ActivityFormPage&#45;CEknmNWA.js&#45;&gt;frontend/dist/assets/utils&#45;km2FGkQ4.js -->
<g id="edge43" class="edge">
<title>frontend/dist/assets/ActivityFormPage&#45;CEknmNWA.js&#45;&gt;frontend/dist/assets/utils&#45;km2FGkQ4.js</title>
<path fill="none" stroke="#757575" d="M1707.06,-575.73C1809.15,-577.44 1941.37,-585.74 2055.75,-612.52 2233.74,-654.19 2272.68,-687.42 2435.5,-770.52 2483.93,-795.24 2537.24,-829.39 2568.46,-850.16"/>
<polygon fill="#757575" stroke="#757575" points="2566.28,-852.91 2576.53,-855.57 2570.17,-847.09 2566.28,-852.91"/>
</g>
<!-- frontend/dist/assets/ActivityFormPage&#45;CEknmNWA.js&#45;&gt;frontend/dist/assets/index&#45;DvjDuSg2.js -->
<g id="edge38" class="edge">
<title>frontend/dist/assets/ActivityFormPage&#45;CEknmNWA.js&#45;&gt;frontend/dist/assets/index&#45;DvjDuSg2.js</title>
<path fill="none" stroke="#757575" d="M1677.8,-590.84C1688.46,-594.46 1698.75,-598.96 1708.25,-604.52 1730.66,-617.63 1721.94,-637.25 1744.25,-650.52 1750.93,-654.5 1758.05,-657.91 1765.42,-660.83"/>
<polygon fill="#757575" stroke="#757575" points="1763.98,-664.03 1774.57,-664.14 1766.36,-657.45 1763.98,-664.03"/>
</g>
<!-- frontend/dist/assets/ActivityFormPage&#45;CEknmNWA.js&#45;&gt;frontend/dist/assets/useActivityPresence&#45;CA22gLSU.js -->
<g id="edge41" class="edge">
<title>frontend/dist/assets/ActivityFormPage&#45;CEknmNWA.js&#45;&gt;frontend/dist/assets/useActivityPresence&#45;CA22gLSU.js</title>
<path fill="none" stroke="#757575" d="M1626.54,-590.84C1652.87,-594.85 1681.79,-599.55 1708.25,-604.52 1724.36,-607.54 1728.12,-609.62 1744.25,-612.52 1881.8,-637.25 1936.18,-583.17 2055.75,-655.52 2163.69,-720.83 2230.96,-866.19 2253.84,-922.56"/>
<polygon fill="#757575" stroke="#757575" points="2250.55,-923.76 2257.49,-931.77 2257.06,-921.18 2250.55,-923.76"/>
</g>
<!-- frontend/dist/assets/ActivityFormPage&#45;CEknmNWA.js&#45;&gt;frontend/dist/assets/activitiesService&#45;Dy2_Ej1w.js -->
<g id="edge36" class="edge">
<title>frontend/dist/assets/ActivityFormPage&#45;CEknmNWA.js&#45;&gt;frontend/dist/assets/activitiesService&#45;Dy2_Ej1w.js</title>
<path fill="none" stroke="#757575" d="M1558.45,-590.84C1591.99,-612.61 1661.35,-660.63 1708.25,-713.52 1719.39,-726.08 1844.16,-931.84 1885.66,-1000.45"/>
<polygon fill="#757575" stroke="#757575" points="1882.63,-1002.2 1890.8,-1008.94 1888.62,-998.57 1882.63,-1002.2"/>
</g>
<!-- frontend/dist/assets/index&#45;CpASYFO2.js&#45;&gt;frontend/dist/assets/index&#45;BBvhcmhs.js -->
<g id="edge85" class="edge">
<title>frontend/dist/assets/index&#45;CpASYFO2.js&#45;&gt;frontend/dist/assets/index&#45;BBvhcmhs.js</title>
<path fill="none" stroke="#757575" d="M981.79,-775.85C1002.09,-779.55 1023.58,-784.1 1043.25,-789.52 1086.39,-801.4 1134.13,-820.23 1166.36,-833.82"/>
<polygon fill="#757575" stroke="#757575" points="1164.71,-836.92 1175.28,-837.62 1167.45,-830.48 1164.71,-836.92"/>
</g>
<!-- frontend/dist/assets/AuthLayout&#45;CV6w2M6x.js&#45;&gt;frontend/dist/assets/index&#45;BBvhcmhs.js -->
<g id="edge64" class="edge">
<title>frontend/dist/assets/AuthLayout&#45;CV6w2M6x.js&#45;&gt;frontend/dist/assets/index&#45;BBvhcmhs.js</title>
<path fill="none" stroke="#757575" d="M1391.24,-938.36C1383.16,-936.63 1375.2,-934.69 1367.5,-932.52 1315.18,-917.79 1258.19,-888.54 1227.99,-868.9"/>
<polygon fill="#757575" stroke="#757575" points="1230.31,-866.25 1220.08,-863.5 1226.36,-872.03 1230.31,-866.25"/>
</g>
<!-- frontend/dist/assets/Dashboard&#45;DKW8FI0Y.js&#45;&gt;frontend/dist/assets/index&#45;BBvhcmhs.js -->
<g id="edge65" class="edge">
<title>frontend/dist/assets/Dashboard&#45;DKW8FI0Y.js&#45;&gt;frontend/dist/assets/index&#45;BBvhcmhs.js</title>
<path fill="none" stroke="#757575" d="M1394.01,-894.48C1385.03,-893.21 1376.13,-891.88 1367.5,-890.52 1325.34,-883.86 1277.34,-874.38 1244.77,-865.85"/>
<polygon fill="#757575" stroke="#757575" points="1245.96,-862.55 1235.39,-863.28 1244.11,-869.3 1245.96,-862.55"/>
</g>
<!-- frontend/dist/assets/Layout&#45;D5&#45;VbKBS.js&#45;&gt;frontend/dist/assets/index&#45;BBvhcmhs.js -->
<g id="edge67" class="edge">
<title>frontend/dist/assets/Layout&#45;D5&#45;VbKBS.js&#45;&gt;frontend/dist/assets/index&#45;BBvhcmhs.js</title>
<path fill="none" stroke="#757575" d="M1450.92,-746.88C1423.71,-750.33 1393.87,-755.55 1367.5,-764.52 1320.07,-780.66 1271.28,-811.86 1240,-832.13"/>
<polygon fill="#757575" stroke="#757575" points="1238.24,-829.09 1231.75,-837.47 1242.05,-834.97 1238.24,-829.09"/>
</g>
<!-- frontend/dist/assets/Layout&#45;D5&#45;VbKBS.js&#45;&gt;frontend/dist/assets/useToast&#45;BHMwPaa0.js -->
<g id="edge69" class="edge">
<title>frontend/dist/assets/Layout&#45;D5&#45;VbKBS.js&#45;&gt;frontend/dist/assets/useToast&#45;BHMwPaa0.js</title>
<path fill="none" stroke="#757575" d="M1668.59,-736.98C1799.39,-737.4 1990.97,-731.74 2055.75,-697.52 2159.11,-642.92 2228.24,-511.78 2252.74,-459.05"/>
<polygon fill="#757575" stroke="#757575" points="2255.83,-460.7 2256.78,-450.14 2249.46,-457.8 2255.83,-460.7"/>
</g>
<!-- frontend/dist/assets/Layout&#45;D5&#45;VbKBS.js&#45;&gt;frontend/dist/assets/utils&#45;km2FGkQ4.js -->
<g id="edge70" class="edge">
<title>frontend/dist/assets/Layout&#45;D5&#45;VbKBS.js&#45;&gt;frontend/dist/assets/utils&#45;km2FGkQ4.js</title>
<path fill="none" stroke="#757575" d="M1668.36,-739.82C1843.63,-748.68 2165.5,-770.9 2435.5,-822.52 2474.35,-829.95 2517.39,-842.58 2549.04,-852.73"/>
<polygon fill="#757575" stroke="#757575" points="2547.7,-855.98 2558.29,-855.74 2549.86,-849.32 2547.7,-855.98"/>
</g>
<!-- frontend/dist/assets/Layout&#45;D5&#45;VbKBS.js&#45;&gt;frontend/dist/assets/index&#45;DvjDuSg2.js -->
<g id="edge68" class="edge">
<title>frontend/dist/assets/Layout&#45;D5&#45;VbKBS.js&#45;&gt;frontend/dist/assets/index&#45;DvjDuSg2.js</title>
<path fill="none" stroke="#757575" d="M1620.75,-722.19C1648.54,-717.94 1679.76,-713.1 1708.25,-708.52 1713.82,-707.63 1766.03,-698.86 1814.42,-690.74"/>
<polygon fill="#757575" stroke="#757575" points="1814.86,-694.21 1824.15,-689.1 1813.7,-687.31 1814.86,-694.21"/>
</g>
<!-- frontend/dist/assets/Login&#45;C0cZS3i4.js&#45;&gt;frontend/dist/assets/index&#45;BBvhcmhs.js -->
<g id="edge71" class="edge">
<title>frontend/dist/assets/Login&#45;C0cZS3i4.js&#45;&gt;frontend/dist/assets/index&#45;BBvhcmhs.js</title>
<path fill="none" stroke="#757575" d="M1414,-863.35C1390.94,-862.88 1366.7,-862.18 1343.24,-861.32"/>
<polygon fill="#757575" stroke="#757575" points="1343.43,-857.83 1333.31,-860.94 1343.17,-864.82 1343.43,-857.83"/>
</g>
<!-- frontend/dist/assets/NotFound&#45;DPIvAwOZ.js&#45;&gt;frontend/dist/assets/index&#45;BBvhcmhs.js -->
<g id="edge72" class="edge">
<title>frontend/dist/assets/NotFound&#45;DPIvAwOZ.js&#45;&gt;frontend/dist/assets/index&#45;BBvhcmhs.js</title>
<path fill="none" stroke="#757575" d="M1467.53,-830.85C1431.44,-835.31 1386.01,-840.06 1343.2,-843.93"/>
<polygon fill="#757575" stroke="#757575" points="1342.95,-840.44 1333.3,-844.81 1343.57,-847.41 1342.95,-840.44"/>
</g>
<!-- frontend/dist/assets/Profile&#45;BrZhfB4Y.js&#45;&gt;frontend/dist/assets/index&#45;BBvhcmhs.js -->
<g id="edge73" class="edge">
<title>frontend/dist/assets/Profile&#45;BrZhfB4Y.js&#45;&gt;frontend/dist/assets/index&#45;BBvhcmhs.js</title>
<path fill="none" stroke="#757575" d="M1412.64,-1023.09C1397.01,-1019.36 1381.58,-1014.28 1367.5,-1007.52 1301.12,-975.65 1242.88,-907.17 1218.51,-871.9"/>
<polygon fill="#757575" stroke="#757575" points="1221.57,-870.18 1213.15,-863.76 1215.73,-874.04 1221.57,-870.18"/>
</g>
<!-- frontend/src/components/common/__tests__/VirtualList.perf.js -->
<g id="node25" class="node">
<title>frontend/src/components/common/__tests__/VirtualList.perf.js</title>
<path fill="none" stroke="#cfffac" d="M380.08,-879.39C380.08,-879.39 7.92,-879.39 7.92,-879.39 3.96,-879.39 0,-875.44 0,-871.48 0,-871.48 0,-863.56 0,-863.56 0,-859.6 3.96,-855.64 7.92,-855.64 7.92,-855.64 380.08,-855.64 380.08,-855.64 384.04,-855.64 388,-859.6 388,-863.56 388,-863.56 388,-871.48 388,-871.48 388,-875.44 384.04,-879.39 380.08,-879.39"/>
<text text-anchor="middle" x="194" y="-862.09" font-family="Arial" font-size="14.00" fill="#cfffac">frontend/src/components/common/__tests__/VirtualList.perf.js</text>
</g>
<!-- frontend/src/features/activities/activitiesSlice.js -->
<g id="node26" class="node">
<title>frontend/src/features/activities/activitiesSlice.js</title>
<path fill="none" stroke="#cfffac" d="M332.83,-921.39C332.83,-921.39 55.17,-921.39 55.17,-921.39 51.21,-921.39 47.25,-917.44 47.25,-913.48 47.25,-913.48 47.25,-905.56 47.25,-905.56 47.25,-901.6 51.21,-897.64 55.17,-897.64 55.17,-897.64 332.83,-897.64 332.83,-897.64 336.79,-897.64 340.75,-901.6 340.75,-905.56 340.75,-905.56 340.75,-913.48 340.75,-913.48 340.75,-917.44 336.79,-921.39 332.83,-921.39"/>
<text text-anchor="middle" x="194" y="-904.09" font-family="Arial" font-size="14.00" fill="#cfffac">frontend/src/features/activities/activitiesSlice.js</text>
</g>
<!-- frontend/src/features/activities/mockData.js -->
<g id="node27" class="node">
<title>frontend/src/features/activities/mockData.js</title>
<path fill="none" stroke="#cfffac" d="M323.08,-963.39C323.08,-963.39 64.92,-963.39 64.92,-963.39 60.96,-963.39 57,-959.44 57,-955.48 57,-955.48 57,-947.56 57,-947.56 57,-943.6 60.96,-939.64 64.92,-939.64 64.92,-939.64 323.08,-939.64 323.08,-939.64 327.04,-939.64 331,-943.6 331,-947.56 331,-947.56 331,-955.48 331,-955.48 331,-959.44 327.04,-963.39 323.08,-963.39"/>
<text text-anchor="middle" x="194" y="-946.09" font-family="Arial" font-size="14.00" fill="#cfffac">frontend/src/features/activities/mockData.js</text>
</g>
<!-- frontend/src/features/activities/mockService.js -->
<g id="node28" class="node">
<title>frontend/src/features/activities/mockService.js</title>
<path fill="none" stroke="#cfffac" d="M331.33,-1005.39C331.33,-1005.39 56.67,-1005.39 56.67,-1005.39 52.71,-1005.39 48.75,-1001.44 48.75,-997.48 48.75,-997.48 48.75,-989.56 48.75,-989.56 48.75,-985.6 52.71,-981.64 56.67,-981.64 56.67,-981.64 331.33,-981.64 331.33,-981.64 335.29,-981.64 339.25,-985.6 339.25,-989.56 339.25,-989.56 339.25,-997.48 339.25,-997.48 339.25,-1001.44 335.29,-1005.39 331.33,-1005.39"/>
<text text-anchor="middle" x="194" y="-988.09" font-family="Arial" font-size="14.00" fill="#cfffac">frontend/src/features/activities/mockService.js</text>
</g>
<!-- frontend/src/hooks/useActivitiesQuery.js -->
<g id="node29" class="node">
<title>frontend/src/hooks/useActivitiesQuery.js</title>
<path fill="none" stroke="#cfffac" d="M314.08,-1047.39C314.08,-1047.39 73.92,-1047.39 73.92,-1047.39 69.96,-1047.39 66,-1043.44 66,-1039.48 66,-1039.48 66,-1031.56 66,-1031.56 66,-1027.6 69.96,-1023.64 73.92,-1023.64 73.92,-1023.64 314.08,-1023.64 314.08,-1023.64 318.04,-1023.64 322,-1027.6 322,-1031.56 322,-1031.56 322,-1039.48 322,-1039.48 322,-1043.44 318.04,-1047.39 314.08,-1047.39"/>
<text text-anchor="middle" x="194" y="-1030.09" font-family="Arial" font-size="14.00" fill="#cfffac">frontend/src/hooks/useActivitiesQuery.js</text>
</g>
<!-- frontend/src/hooks/useSessionTimeout.js -->
<g id="node30" class="node">
<title>frontend/src/hooks/useSessionTimeout.js</title>
<path fill="none" stroke="#cfffac" d="M317.83,-1089.39C317.83,-1089.39 70.17,-1089.39 70.17,-1089.39 66.21,-1089.39 62.25,-1085.44 62.25,-1081.48 62.25,-1081.48 62.25,-1073.56 62.25,-1073.56 62.25,-1069.6 66.21,-1065.64 70.17,-1065.64 70.17,-1065.64 317.83,-1065.64 317.83,-1065.64 321.79,-1065.64 325.75,-1069.6 325.75,-1073.56 325.75,-1073.56 325.75,-1081.48 325.75,-1081.48 325.75,-1085.44 321.79,-1089.39 317.83,-1089.39"/>
<text text-anchor="middle" x="194" y="-1072.09" font-family="Arial" font-size="14.00" fill="#cfffac">frontend/src/hooks/useSessionTimeout.js</text>
</g>
<!-- frontend/src/hooks/useSessions.js -->
<g id="node31" class="node">
<title>frontend/src/hooks/useSessions.js</title>
<path fill="none" stroke="#cfffac" d="M296.46,-1131.39C296.46,-1131.39 91.54,-1131.39 91.54,-1131.39 87.58,-1131.39 83.62,-1127.44 83.62,-1123.48 83.62,-1123.48 83.62,-1115.56 83.62,-1115.56 83.62,-1111.6 87.58,-1107.64 91.54,-1107.64 91.54,-1107.64 296.46,-1107.64 296.46,-1107.64 300.42,-1107.64 304.38,-1111.6 304.38,-1115.56 304.38,-1115.56 304.38,-1123.48 304.38,-1123.48 304.38,-1127.44 300.42,-1131.39 296.46,-1131.39"/>
<text text-anchor="middle" x="194" y="-1114.09" font-family="Arial" font-size="14.00" fill="#cfffac">frontend/src/hooks/useSessions.js</text>
</g>
<!-- frontend/src/services/activitiesService.js -->
<g id="node32" class="node">
<title>frontend/src/services/activitiesService.js</title>
<path fill="none" stroke="#cfffac" d="M313.33,-1173.39C313.33,-1173.39 74.67,-1173.39 74.67,-1173.39 70.71,-1173.39 66.75,-1169.44 66.75,-1165.48 66.75,-1165.48 66.75,-1157.56 66.75,-1157.56 66.75,-1153.6 70.71,-1149.64 74.67,-1149.64 74.67,-1149.64 313.33,-1149.64 313.33,-1149.64 317.29,-1149.64 321.25,-1153.6 321.25,-1157.56 321.25,-1157.56 321.25,-1165.48 321.25,-1165.48 321.25,-1169.44 317.29,-1173.39 313.33,-1173.39"/>
<text text-anchor="middle" x="194" y="-1156.09" font-family="Arial" font-size="14.00" fill="#cfffac">frontend/src/services/activitiesService.js</text>
</g>
<!-- frontend/src/services/authService.js -->
<g id="node33" class="node">
<title>frontend/src/services/authService.js</title>
<path fill="none" stroke="#cfffac" d="M300.58,-1215.39C300.58,-1215.39 87.42,-1215.39 87.42,-1215.39 83.46,-1215.39 79.5,-1211.44 79.5,-1207.48 79.5,-1207.48 79.5,-1199.56 79.5,-1199.56 79.5,-1195.6 83.46,-1191.64 87.42,-1191.64 87.42,-1191.64 300.58,-1191.64 300.58,-1191.64 304.54,-1191.64 308.5,-1195.6 308.5,-1199.56 308.5,-1199.56 308.5,-1207.48 308.5,-1207.48 308.5,-1211.44 304.54,-1215.39 300.58,-1215.39"/>
<text text-anchor="middle" x="194" y="-1198.09" font-family="Arial" font-size="14.00" fill="#cfffac">frontend/src/services/authService.js</text>
</g>
<!-- frontend/src/services/sessionService.js -->
<g id="node34" class="node">
<title>frontend/src/services/sessionService.js</title>
<path fill="none" stroke="#cfffac" d="M310.33,-1257.39C310.33,-1257.39 77.67,-1257.39 77.67,-1257.39 73.71,-1257.39 69.75,-1253.44 69.75,-1249.48 69.75,-1249.48 69.75,-1241.56 69.75,-1241.56 69.75,-1237.6 73.71,-1233.64 77.67,-1233.64 77.67,-1233.64 310.33,-1233.64 310.33,-1233.64 314.29,-1233.64 318.25,-1237.6 318.25,-1241.56 318.25,-1241.56 318.25,-1249.48 318.25,-1249.48 318.25,-1253.44 314.29,-1257.39 310.33,-1257.39"/>
<text text-anchor="middle" x="194" y="-1240.09" font-family="Arial" font-size="14.00" fill="#cfffac">frontend/src/services/sessionService.js</text>
</g>
<!-- frontend/src/styles/GlobalStyle.js -->
<g id="node35" class="node">
<title>frontend/src/styles/GlobalStyle.js</title>
<path fill="none" stroke="#cfffac" d="M292.33,-1299.39C292.33,-1299.39 95.67,-1299.39 95.67,-1299.39 91.71,-1299.39 87.75,-1295.44 87.75,-1291.48 87.75,-1291.48 87.75,-1283.56 87.75,-1283.56 87.75,-1279.6 91.71,-1275.64 95.67,-1275.64 95.67,-1275.64 292.33,-1275.64 292.33,-1275.64 296.29,-1275.64 300.25,-1279.6 300.25,-1283.56 300.25,-1283.56 300.25,-1291.48 300.25,-1291.48 300.25,-1295.44 296.29,-1299.39 292.33,-1299.39"/>
<text text-anchor="middle" x="194" y="-1282.09" font-family="Arial" font-size="14.00" fill="#cfffac">frontend/src/styles/GlobalStyle.js</text>
</g>
<!-- frontend/src/styles/glassmorphism.js -->
<g id="node36" class="node">
<title>frontend/src/styles/glassmorphism.js</title>
<path fill="none" stroke="#cfffac" d="M303.58,-1341.39C303.58,-1341.39 84.42,-1341.39 84.42,-1341.39 80.46,-1341.39 76.5,-1337.44 76.5,-1333.48 76.5,-1333.48 76.5,-1325.56 76.5,-1325.56 76.5,-1321.6 80.46,-1317.64 84.42,-1317.64 84.42,-1317.64 303.58,-1317.64 303.58,-1317.64 307.54,-1317.64 311.5,-1321.6 311.5,-1325.56 311.5,-1325.56 311.5,-1333.48 311.5,-1333.48 311.5,-1337.44 307.54,-1341.39 303.58,-1341.39"/>
<text text-anchor="middle" x="194" y="-1324.09" font-family="Arial" font-size="14.00" fill="#cfffac">frontend/src/styles/glassmorphism.js</text>
</g>
<!-- frontend/src/utils/enumTranslations.js -->
<g id="node37" class="node">
<title>frontend/src/utils/enumTranslations.js</title>
<path fill="none" stroke="#cfffac" d="M306.21,-1383.39C306.21,-1383.39 81.79,-1383.39 81.79,-1383.39 77.83,-1383.39 73.88,-1379.44 73.88,-1375.48 73.88,-1375.48 73.88,-1367.56 73.88,-1367.56 73.88,-1363.6 77.83,-1359.64 81.79,-1359.64 81.79,-1359.64 306.21,-1359.64 306.21,-1359.64 310.17,-1359.64 314.12,-1363.6 314.12,-1367.56 314.12,-1367.56 314.12,-1375.48 314.12,-1375.48 314.12,-1379.44 310.17,-1383.39 306.21,-1383.39"/>
<text text-anchor="middle" x="194" y="-1366.09" font-family="Arial" font-size="14.00" fill="#cfffac">frontend/src/utils/enumTranslations.js</text>
</g>
<!-- frontend/vite.config.js -->
<g id="node38" class="node">
<title>frontend/vite.config.js</title>
<path fill="none" stroke="#cfffac" d="M257.83,-1425.39C257.83,-1425.39 130.17,-1425.39 130.17,-1425.39 126.21,-1425.39 122.25,-1421.44 122.25,-1417.48 122.25,-1417.48 122.25,-1409.56 122.25,-1409.56 122.25,-1405.6 126.21,-1401.64 130.17,-1401.64 130.17,-1401.64 257.83,-1401.64 257.83,-1401.64 261.79,-1401.64 265.75,-1405.6 265.75,-1409.56 265.75,-1409.56 265.75,-1417.48 265.75,-1417.48 265.75,-1421.44 261.79,-1425.39 257.83,-1425.39"/>
<text text-anchor="middle" x="194" y="-1408.09" font-family="Arial" font-size="14.00" fill="#cfffac">frontend/vite.config.js</text>
</g>
</g>
</svg>
